<?xml version="1.0" encoding="UTF-8"?>
<svg version="1.1" xmlns="http://www.w3.org/2000/svg" width="512" height="512">
<path d="M0 0 C1.51842835 -0.00300317 3.03685595 -0.0064083 4.55528259 -0.01017761 C8.63026809 -0.01890673 12.70523252 -0.02135105 16.78022647 -0.0219934 C19.34206843 -0.02271055 21.90390525 -0.02485732 24.46574593 -0.02749062 C33.44884702 -0.03670925 42.4319334 -0.04083012 51.41503906 -0.04003906 C59.71392672 -0.03944007 68.01274902 -0.04996583 76.31162018 -0.06578273 C83.4969905 -0.07897641 90.68233979 -0.08421802 97.86772209 -0.08358365 C102.13225589 -0.083332 106.39673153 -0.08599455 110.66125298 -0.0967617 C162.34884553 -0.21799212 216.05835363 2.77270992 255.13891602 40.83276367 C260.98738389 46.70536425 265.72052829 53.08431245 270.07641602 60.14526367 C271.09155273 61.78495117 271.09155273 61.78495117 272.12719727 63.45776367 C290.21508957 94.21678323 293.23574679 132.2014935 293.22167969 167.06884766 C293.22468286 168.58727601 293.22808798 170.10570361 293.2318573 171.62413025 C293.24058642 175.69911575 293.24303074 179.77408017 293.24367309 183.84907413 C293.24439024 186.41091609 293.246537 188.97275291 293.2491703 191.53459358 C293.25838894 200.51769467 293.26250981 209.50078105 293.26171875 218.48388672 C293.26111976 226.78277438 293.27164552 235.08159667 293.28746241 243.38046783 C293.3006561 250.56583816 293.30589771 257.75118744 293.30526334 264.93656975 C293.30501168 269.20110355 293.30767424 273.46557919 293.31844139 277.73010063 C293.4396718 329.41769319 290.44896977 383.12720129 252.38891602 422.20776367 C246.51631544 428.05623154 240.13736723 432.78937594 233.07641602 437.14526367 C231.98329102 437.82202148 230.89016602 438.4987793 229.76391602 439.19604492 C199.00489646 457.28393722 161.02018619 460.30459445 126.15283203 460.29052734 C124.63440368 460.29353052 123.11597608 460.29693564 121.59754944 460.30070496 C117.52256394 460.30943407 113.44759951 460.3118784 109.37260556 460.31252074 C106.8107636 460.3132379 104.24892678 460.31538466 101.68708611 460.31801796 C92.70398501 460.3272366 83.72089863 460.33135747 74.73779297 460.33056641 C66.43890531 460.32996741 58.14008301 460.34049318 49.84121186 460.35631007 C42.65584153 460.36950375 35.47049224 460.37474537 28.28510994 460.374111 C24.02057614 460.37385934 19.7561005 460.3765219 15.49157906 460.38728905 C-36.1960135 460.50851946 -89.9055216 457.51781742 -128.98608398 419.45776367 C-134.83455186 413.5851631 -139.56769625 407.20621489 -143.92358398 400.14526367 C-144.6003418 399.05213867 -145.27709961 397.95901367 -145.97436523 396.83276367 C-163.8866318 366.37240111 -167.08256859 328.71280626 -167.06884766 294.15161133 C-167.07184981 292.6136263 -167.07525471 291.07564202 -167.07902527 289.53765869 C-167.08776566 285.40476464 -167.09019923 281.27189137 -167.09084105 277.13898897 C-167.09155766 274.54147286 -167.09370344 271.94396183 -167.09633827 269.34644699 C-167.10556129 260.24015729 -167.1096773 251.13388211 -167.10888672 242.02758789 C-167.1082879 233.61227383 -167.11880904 225.19702426 -167.13463038 216.78172648 C-167.14782247 209.49871262 -167.15306573 202.21571952 -167.15243131 194.93269384 C-167.15217957 190.60890066 -167.154847 186.28516482 -167.16560936 181.96138382 C-167.28478921 130.41782365 -164.19109422 77.05546599 -126.23608398 38.08276367 C-120.36348341 32.2342958 -113.9845352 27.5011514 -106.92358398 23.14526367 C-105.83045898 22.46850586 -104.73733398 21.79174805 -103.61108398 21.09448242 C-72.95431914 3.06416259 -34.77572864 -0.01403014 0 0 Z M-100.92358398 60.14526367 C-101.70217773 60.84393555 -102.48077148 61.54260742 -103.28295898 62.26245117 C-127.07253652 84.69490515 -132.36948389 120.05006795 -133.92358398 151.14526367 C-134.24863044 162.30184414 -134.20989484 173.46439069 -134.19223499 184.62469482 C-134.18707919 188.91931385 -134.19189246 193.21392545 -134.19500732 197.50854492 C-134.19861964 204.71298789 -134.19392054 211.91738952 -134.18432617 219.12182617 C-134.17344697 227.38511979 -134.1769745 235.64831461 -134.18797898 243.91160583 C-134.19713069 251.07755869 -134.19829907 258.24348226 -134.19310164 265.40943909 C-134.19002478 269.65814832 -134.18945155 273.90681153 -134.19617462 278.15551758 C-134.50001436 340.231867 -134.50001436 340.231867 -106.92358398 394.14526367 C-106.22362305 394.92643555 -105.52366211 395.70760742 -104.80249023 396.51245117 C-99.44909992 402.1807468 -93.68979242 406.3079893 -86.92358398 410.14526367 C-85.60487305 410.91483398 -85.60487305 410.91483398 -84.25952148 411.69995117 C-53.55862629 428.39086039 -16.3404503 427.46755151 17.55584717 427.41391468 C21.85046619 427.40875888 26.14507779 427.41357215 30.43969727 427.41668701 C37.64414024 427.42029933 44.84854186 427.41560023 52.05297852 427.40600586 C60.31627213 427.39512666 68.57946695 427.39865419 76.84275818 427.40965867 C84.00871103 427.41881038 91.1746346 427.41997876 98.34059143 427.41478133 C102.58930066 427.41170447 106.83796387 427.41113124 111.08666992 427.41785431 C173.18016737 427.78266543 173.18016737 427.78266543 227.07641602 400.14526367 C227.85758789 399.44530273 228.63875977 398.7453418 229.44360352 398.02416992 C235.11189914 392.67077961 239.23914164 386.91147211 243.07641602 380.14526367 C243.58946289 379.26612305 244.10250977 378.38698242 244.63110352 377.48120117 C261.41796358 346.60381607 260.39989759 309.09285758 260.34506702 275.00122833 C260.33990438 270.76847607 260.3447263 266.53573124 260.34783936 262.30297852 C260.35144977 255.20286473 260.34675771 248.10279292 260.3371582 241.00268555 C260.32627938 232.8637906 260.32980705 224.72499596 260.34081101 216.58610344 C260.34996829 209.52287391 260.35112846 202.45967407 260.34593368 195.39644051 C260.34285979 191.21087126 260.34227488 187.02534871 260.34900665 182.83978271 C260.73144132 120.39801434 260.73144132 120.39801434 233.07641602 66.14526367 C232.37645508 65.3640918 231.67649414 64.58291992 230.95532227 63.77807617 C207.73423239 39.19103984 170.35394616 33.96912821 138.19506836 33.03218079 C128.33055424 32.83613327 118.46296161 32.86100094 108.59698486 32.87661266 C104.30236584 32.88176847 100.00775424 32.8769552 95.71313477 32.87384033 C88.50869179 32.87022802 81.30429017 32.87492711 74.09985352 32.88452148 C65.8365599 32.89540069 57.57336508 32.89187315 49.31007385 32.88086867 C42.144121 32.87171696 34.97819743 32.87054858 27.8122406 32.87574601 C23.56353137 32.87882287 19.31486816 32.8793961 15.06616211 32.87267303 C-47.05169281 32.4815194 -47.05169281 32.4815194 -100.92358398 60.14526367 Z " fill="#000000" transform="translate(192.923583984375,25.854736328125)"/>
<path d="M0 0 C4.73870291 4.09251615 6.93722814 7.94517114 7.4375 14.125 C6.99811904 23.80602717 -0.96107438 31.45132868 -6.8828125 38.51953125 C-9.73578731 41.96099096 -12.45290683 45.49517938 -15.16723633 49.04638672 C-19.432854 54.62393974 -23.74618104 60.16374854 -28.0637207 65.70117188 C-31.19374497 69.71895532 -34.30376928 73.75005039 -37.38330078 77.80664062 C-46.31464092 89.53714635 -54.06506583 99.61215584 -69.25 102.375 C-89.15457746 104.16224988 -100.60130816 94.04429689 -115.25 82.375 C-119.35193891 79.11809572 -123.46609413 75.87802087 -127.60253906 72.66503906 C-129.21360887 71.40349596 -130.80603528 70.12091065 -132.3984375 68.8359375 C-133.36007813 68.08570313 -134.32171875 67.33546875 -135.3125 66.5625 C-136.14910156 65.89605469 -136.98570312 65.22960937 -137.84765625 64.54296875 C-140.20031573 63.10569686 -140.20031573 63.10569686 -142.796875 63.84375 C-145.83775704 65.74188019 -147.37019885 67.75914659 -149.4375 70.6875 C-150.22295089 71.77937125 -151.00944627 72.87049175 -151.796875 73.9609375 C-152.19970703 74.52522461 -152.60253906 75.08951172 -153.01757812 75.67089844 C-155.01394268 78.43132328 -157.10069138 81.12018616 -159.1875 83.8125 C-160.03534014 84.91131647 -160.8829957 86.01027539 -161.73046875 87.109375 C-162.14989746 87.65271484 -162.56932617 88.19605469 -163.00146484 88.75585938 C-165.00542256 91.35465631 -167.00179728 93.95927682 -169 96.5625 C-171.87851675 100.31000293 -174.77036901 104.04673852 -177.67578125 107.7734375 C-178.27237549 108.53881836 -178.86896973 109.30419922 -179.48364258 110.09277344 C-180.69736857 111.64885733 -181.91204131 113.20420327 -183.12768555 114.75878906 C-185.78767708 118.16912824 -188.42747004 121.58593671 -190.96875 125.0859375 C-191.7421875 126.15070313 -192.515625 127.21546875 -193.3125 128.3125 C-193.96347656 129.22902344 -194.61445313 130.14554688 -195.28515625 131.08984375 C-199.15169896 135.58671748 -203.16719334 136.97837547 -208.90625 137.4375 C-214.15024262 137.2976602 -217.98065953 135.67774417 -221.625 131.9375 C-225.18556458 126.32276355 -226.43129441 122.04695081 -225.25 115.375 C-221.61883824 107.22037735 -215.10360908 100.29095588 -209.5 93.40625 C-206.12674997 89.24890311 -202.86719648 85.00995635 -199.625 80.75 C-199.07690674 80.03046143 -198.52881348 79.31092285 -197.96411133 78.56958008 C-196.89058268 77.15945965 -195.81741171 75.74906684 -194.74462891 74.33837891 C-191.81891686 70.49509627 -188.87527897 66.6658022 -185.921875 62.84375 C-183.85437905 60.16779222 -181.8086958 57.47589473 -179.765625 54.78125 C-178.53146653 53.16650115 -177.29709255 51.55191699 -176.0625 49.9375 C-175.20700562 48.80066772 -175.20700562 48.80066772 -174.33422852 47.64086914 C-167.08225929 38.20104965 -158.986766 31.67187466 -147.0234375 29.62890625 C-126.66326552 27.76494684 -114.03197218 40.07734951 -99.08789062 51.92089844 C-95.96182426 54.39417836 -92.82385756 56.85229334 -89.6875 59.3125 C-83.35733316 64.27899915 -83.35733316 64.27899915 -80.66015625 66.69140625 C-78.37498872 68.49238203 -78.37498872 68.49238203 -75.78515625 69.03125 C-71.80781113 68.0016753 -70.02902262 65.03652321 -67.6875 61.875 C-67.16865234 61.20082031 -66.64980469 60.52664062 -66.11523438 59.83203125 C-64.47589843 57.69239133 -62.86070132 55.5362559 -61.25 53.375 C-60.24110077 52.0310883 -59.23199118 50.6873345 -58.22265625 49.34375 C-56.72819469 47.35072586 -55.23599248 45.356163 -53.74951172 43.35717773 C-49.89163934 38.18056204 -45.89561051 33.1308378 -41.83569336 28.11181641 C-37.3358388 22.53173166 -32.99473945 16.83620983 -28.70141602 11.09594727 C-19.98204785 -0.45207068 -19.98204785 -0.45207068 -14.0625 -2.3125 C-8.76263064 -2.90137437 -4.71348506 -2.35674253 0 0 Z " fill="#000000" transform="translate(365.25,188.625)"/>
</svg>
