<?xml version="1.0" encoding="UTF-8"?>
<svg version="1.1" xmlns="http://www.w3.org/2000/svg" width="512" height="512">
<path d="M0 0 C5.47439846 3.99377824 8.2191181 8.4423188 9.6953125 15.0390625 C10.51878037 20.89302224 9.8510932 26.2900011 7.1953125 31.6015625 C8.2980227 31.60652772 8.2980227 31.60652772 9.42300987 31.61159325 C27.29085633 31.69272904 45.1586157 31.78479027 63.02634239 31.88908958 C71.66695756 31.93926256 80.30756301 31.98570482 88.94824219 32.0234375 C96.47735453 32.0563255 104.00639253 32.09613882 111.53542292 32.14435256 C115.52389063 32.16964945 119.51230882 32.19142117 123.50083542 32.20490646 C127.25187475 32.21769806 131.00274452 32.2397206 134.75369072 32.26894569 C136.13318109 32.2780443 137.51269879 32.283717 138.89221764 32.28577614 C140.77017352 32.28908246 142.64809212 32.30570641 144.52597046 32.3230896 C146.10500184 32.33138574 146.10500184 32.33138574 147.71593285 32.33984947 C150.1953125 32.6015625 150.1953125 32.6015625 152.1953125 34.6015625 C152.39529574 37.51905385 152.47506137 40.33958179 152.4609375 43.2578125 C152.46285095 44.11588501 152.4647644 44.97395752 152.46673584 45.85803223 C152.46809794 47.67374972 152.46439978 49.48947695 152.45605469 51.30517578 C152.44535541 54.090391 152.45594903 56.87496118 152.46875 59.66015625 C152.46742841 61.42187643 152.46486603 63.18359621 152.4609375 64.9453125 C152.46498596 65.78179321 152.46903442 66.61827393 152.47320557 67.48010254 C152.42523084 73.37164416 152.42523084 73.37164416 150.1953125 75.6015625 C148.22412109 75.82861328 148.22412109 75.82861328 145.84375 75.796875 C144.56757812 75.78720703 144.56757812 75.78720703 143.265625 75.77734375 C141.93144531 75.75220703 141.93144531 75.75220703 140.5703125 75.7265625 C139.673125 75.71753906 138.7759375 75.70851563 137.8515625 75.69921875 C135.63254664 75.6756122 133.41406173 75.6426856 131.1953125 75.6015625 C131.43984161 76.22319275 131.68437073 76.844823 131.93630981 77.48529053 C132.28491058 78.37154114 132.63351135 79.25779175 132.99267578 80.17089844 C133.38844818 81.17706711 133.78422058 82.18323578 134.19198608 83.21989441 C135.08865075 85.50013253 135.98498264 87.78050153 136.88101196 90.06098938 C139.11706877 95.7516767 141.35475944 101.44167558 143.60217285 107.12788868 C144.87192726 110.34108855 146.13968948 113.55507118 147.40625 116.76953125 C147.6579747 117.40838697 147.9096994 118.0472427 148.16905212 118.70545769 C151.35373775 126.79800507 154.44984814 134.91665176 157.421875 143.08984375 C158.32135325 145.52954493 159.22255774 147.96860284 160.1239624 150.40759277 C160.66529984 151.89479237 161.19510959 153.38624617 161.71246338 154.88195801 C164.9731748 164.30775824 168.26123505 169.71815165 177.1953125 174.6015625 C208.68893949 197.04173898 229.79404753 226.90788746 239.1953125 264.6015625 C239.45997314 265.58745361 239.45997314 265.58745361 239.72998047 266.59326172 C249.31050378 303.13977731 239.90306424 343.69275522 221.4140625 375.68359375 C215.13155481 385.89266874 207.33239638 394.83969339 199.1953125 403.6015625 C198.64488281 404.20613281 198.09445312 404.81070312 197.52734375 405.43359375 C174.93148591 429.25688091 138.74622151 445.45244675 105.94311523 446.72802734 C75.15165251 447.36989943 75.15165251 447.36989943 60.1953125 443.6015625 C59.4228418 443.41352051 58.65037109 443.22547852 57.85449219 443.03173828 C39.72820066 438.48751242 22.1775812 430.86694371 7.1953125 419.6015625 C5.94814453 418.66763672 5.94814453 418.66763672 4.67578125 417.71484375 C1.0933193 414.93349928 -2.2482664 412.22468421 -5.27793789 408.83183289 C-10.78591051 402.89617314 -14.96801047 399.65942206 -23.21290588 399.26098633 C-26.48287984 399.18122555 -29.7403233 399.23847078 -33.01000977 399.30859375 C-34.81970818 399.30674205 -36.62940711 399.29999819 -38.43907166 399.28877258 C-43.31963078 399.27179661 -48.1974599 399.32158284 -53.07757306 399.38309479 C-58.19306067 399.43514469 -63.30836875 399.42217187 -68.42405701 399.41552734 C-78.09973085 399.41219909 -87.77430586 399.46210547 -97.4496879 399.53359604 C-114.80232831 399.6596057 -132.15536349 399.68544161 -149.50840229 399.70548725 C-155.59766523 399.71452043 -161.68640204 399.74397181 -167.77548897 399.7907629 C-171.55264506 399.81771744 -175.32979213 399.83310461 -179.10701942 399.8460598 C-180.8618794 399.85485439 -182.61672184 399.86890474 -184.37149429 399.88851357 C-186.76093045 399.91470095 -189.14976118 399.9226974 -191.5393219 399.92626953 C-192.23833242 399.93862042 -192.93734295 399.95097132 -193.65753561 399.96369648 C-196.45856732 399.95198961 -198.36738517 399.89228728 -200.73451138 398.31858826 C-202.66209537 395.22590912 -202.22965283 391.60237288 -202.203125 388.06640625 C-202.20599518 387.23194473 -202.20886536 386.39748322 -202.21182251 385.53773499 C-202.21386291 383.77506837 -202.20833471 382.0123791 -202.19580078 380.24975586 C-202.17972606 377.54554914 -202.19566007 374.84283245 -202.21484375 372.13867188 C-202.21286171 370.42708002 -202.20901884 368.7154891 -202.203125 367.00390625 C-202.20919769 366.19243637 -202.21527039 365.38096649 -202.2215271 364.54490662 C-202.19287109 362.26928711 -202.19287109 362.26928711 -201.8046875 358.6015625 C-198.70634686 356.53600207 -198.07288845 356.35244023 -194.5716095 356.36105347 C-193.70924179 356.35830414 -192.84687408 356.35555481 -191.95837402 356.35272217 C-191.01538452 356.35991272 -190.07239502 356.36710327 -189.10083008 356.37451172 C-188.1055278 356.37421967 -187.11022552 356.37392761 -186.08476257 356.37362671 C-182.78949312 356.37502189 -179.49444878 356.39059212 -176.19921875 356.40625 C-173.91664249 356.40997946 -171.63406464 356.41282675 -169.35148621 356.41482544 C-163.33940218 356.42246719 -157.32741455 356.4421204 -151.31536865 356.4642334 C-145.18226424 356.48468012 -139.04914428 356.49382465 -132.91601562 356.50390625 C-120.87886386 356.52536573 -108.84178369 356.55950826 -96.8046875 356.6015625 C-96.51585693 355.67883545 -96.22702637 354.7561084 -95.92944336 353.80541992 C-94.61575996 350.06340404 -92.6783463 347.09235167 -90.3671875 343.9140625 C-89.70783203 343.00321899 -89.70783203 343.00321899 -89.03515625 342.07397461 C-80.39014066 330.42670872 -69.67417693 321.30442158 -56.8046875 314.6015625 C-56.1446875 314.6015625 -55.4846875 314.6015625 -54.8046875 314.6015625 C-54.82825317 313.24345459 -54.82825317 313.24345459 -54.85229492 311.85791016 C-55.17066144 290.71676144 -54.64307791 271.83417199 -48.1796875 251.5390625 C-47.88578125 250.60570068 -47.591875 249.67233887 -47.2890625 248.71069336 C-45.77998853 244.26360267 -44.3205294 240.34641875 -41.62809753 236.45864868 C-32.20608619 222.78121951 -33.5417512 207.08521752 -33.69021297 191.19428897 C-33.71865802 187.11968101 -33.69558403 183.04534306 -33.67835999 178.97071838 C-33.65349028 171.28217331 -33.67384799 163.59446499 -33.71113354 155.90599734 C-33.75893487 145.49743839 -33.73549658 135.08904321 -33.7164011 124.68043232 C-33.68823555 108.32034638 -33.75406096 91.9620341 -33.8046875 75.6015625 C-66.4746875 75.6015625 -99.1446875 75.6015625 -132.8046875 75.6015625 C-125.3796875 94.4115625 -125.3796875 94.4115625 -117.8046875 113.6015625 C-109.55578934 134.59200704 -109.55578934 134.59200704 -105.49121094 145.01025391 C-101.65689183 154.83015935 -97.80565342 164.64048396 -93.83491516 174.40618896 C-92.13338238 178.59480341 -90.44788414 182.78978456 -88.76358032 186.98535156 C-87.96829016 188.9531692 -87.16509007 190.91781168 -86.35336304 192.87890625 C-78.26884149 212.42117619 -78.26884149 212.42117619 -79.8046875 223.6015625 C-79.90120605 224.3548584 -79.99772461 225.1081543 -80.09716797 225.88427734 C-82.72242319 241.72344417 -90.76544365 255.72530581 -103.43359375 265.6640625 C-118.89306946 276.1053969 -136.67813477 278.9398946 -154.98681641 276.28515625 C-158.77097022 275.47038156 -162.26761824 274.15094154 -165.8046875 272.6015625 C-166.67867187 272.2509375 -167.55265625 271.9003125 -168.453125 271.5390625 C-175.35162175 268.48249778 -180.49752519 263.89082545 -185.8046875 258.6015625 C-186.45566406 257.97378906 -187.10664063 257.34601563 -187.77734375 256.69921875 C-198.04675949 246.02354041 -202.18211448 230.64408793 -202.27984619 216.15766907 C-202.06573347 207.64203366 -198.88040251 200.50868439 -195.5546875 192.7890625 C-194.87944692 191.16172566 -194.20751363 189.53301331 -193.53857422 187.90307617 C-192.46120854 185.28032276 -191.38130042 182.6588484 -190.29110718 180.04139709 C-186.09971091 169.97643302 -182.15164776 159.8182287 -178.19485474 149.65930176 C-176.08966171 144.25933972 -173.97247373 138.86408986 -171.85546875 133.46875 C-171.43786789 132.40406494 -171.02026703 131.33937988 -170.5900116 130.24243164 C-166.48870345 119.78921043 -162.37264539 109.34183058 -158.24676514 98.89828491 C-157.49797173 97.00291552 -156.74947383 95.10742935 -156.00128174 93.21182251 C-154.97449431 90.61087702 -153.94646299 88.0104272 -152.91796875 85.41015625 C-152.61481247 84.64192535 -152.31165619 83.87369446 -151.99931335 83.08218384 C-149.91976571 77.83171892 -149.91976571 77.83171892 -148.8046875 75.6015625 C-149.66747314 75.62774658 -150.53025879 75.65393066 -151.41918945 75.6809082 C-154.62274 75.76616068 -157.82571246 75.82882518 -161.0300293 75.8762207 C-162.41629054 75.90135469 -163.80241937 75.93546842 -165.18823242 75.97875977 C-167.18089787 76.03944646 -169.17453283 76.06511129 -171.16796875 76.08984375 C-172.36719971 76.11602783 -173.56643066 76.14221191 -174.80200195 76.16918945 C-177.8046875 75.6015625 -177.8046875 75.6015625 -179.69458008 73.54174805 C-181.03473396 69.99227078 -181.23652168 66.81184819 -181.203125 63.0703125 C-181.20599518 62.35677612 -181.20886536 61.64323975 -181.21182251 60.90808105 C-181.21385634 59.4053467 -181.20837419 57.90258547 -181.19580078 56.39990234 C-181.17973574 54.10844351 -181.19567087 51.81874816 -181.21484375 49.52734375 C-181.2128612 48.06249613 -181.20901726 46.59764961 -181.203125 45.1328125 C-181.20919769 44.45246948 -181.21527039 43.77212646 -181.2215271 43.07116699 C-181.15750654 38.7101328 -180.51799477 36.02733205 -177.8046875 32.6015625 C-175.20226002 31.97070599 -175.20226002 31.97070599 -172.01509094 31.96232605 C-170.20406891 31.93939484 -170.20406891 31.93939484 -168.35646057 31.91600037 C-167.0166902 31.92425271 -165.6769227 31.9329815 -164.3371582 31.94213867 C-162.92785217 31.93368768 -161.51855782 31.92304459 -160.10928345 31.91036987 C-156.28090862 31.88216741 -152.45309299 31.88470478 -148.62464547 31.89266372 C-144.62469439 31.8957838 -140.62492297 31.87076914 -136.62504578 31.84870911 C-129.0496383 31.81121952 -121.47441036 31.79911823 -113.89891928 31.7960847 C-105.27498515 31.79139918 -96.65123145 31.75849221 -88.02737677 31.72318685 C-70.28649774 31.65119086 -52.54570279 31.61472579 -34.8046875 31.6015625 C-35.12300537 30.79513306 -35.12300537 30.79513306 -35.44775391 29.97241211 C-35.72280762 29.26093018 -35.99786133 28.54944824 -36.28125 27.81640625 C-36.55533691 27.11378662 -36.82942383 26.41116699 -37.11181641 25.68725586 C-39.18288699 19.45288096 -37.49308054 13.35513094 -34.8046875 7.6015625 C-27.29892077 -4.64342233 -12.10386473 -6.96653307 0 0 Z M-24.6796875 13.2890625 C-26.49898295 17.02872538 -26.53712841 20.53792399 -25.8046875 24.6015625 C-23.47235345 28.61026166 -21.30353366 30.7514974 -16.9296875 32.1640625 C-12.49716731 32.97529733 -9.66143045 31.97494278 -5.8046875 29.6015625 C-2.94722656 26.37776042 -1.91418011 24.36801077 -1.3046875 20.1015625 C-2.04468286 14.92159498 -4.10004482 11.94733304 -8.1796875 8.7265625 C-15.1752483 5.72846502 -19.37339283 8.51339729 -24.6796875 13.2890625 Z M-168.8046875 43.6015625 C-168.8046875 50.5315625 -168.8046875 57.4615625 -168.8046875 64.6015625 C-66.5046875 64.6015625 35.7953125 64.6015625 141.1953125 64.6015625 C141.1953125 57.6715625 141.1953125 50.7415625 141.1953125 43.6015625 C38.8953125 43.6015625 -63.4046875 43.6015625 -168.8046875 43.6015625 Z M-22.8046875 75.6015625 C-22.8046875 118.5015625 -22.8046875 161.4015625 -22.8046875 205.6015625 C-18.44450961 201.24138461 -14.38453537 196.77670754 -10.38127136 192.09794617 C-8.8046875 190.6015625 -8.8046875 190.6015625 -6.38105774 189.1966095 C-2.30833684 186.51286097 0.58443174 184.09759298 1.75828362 179.3012886 C2.64496224 172.0774012 2.34010572 164.794771 2.171875 157.53515625 C2.15320772 155.17150369 2.13898068 152.80781225 2.1289978 150.44410706 C2.09094192 144.24364082 1.99282272 138.04554311 1.88195801 131.8460083 C1.77938549 125.51159707 1.73393035 119.17680044 1.68359375 112.84179688 C1.57656762 100.42718099 1.40077443 88.01493988 1.1953125 75.6015625 C-6.7246875 75.6015625 -14.6446875 75.6015625 -22.8046875 75.6015625 Z M13.1953125 75.6015625 C13.1953125 107.6115625 13.1953125 139.6215625 13.1953125 172.6015625 C18.4753125 169.9615625 23.7553125 167.3215625 29.1953125 164.6015625 C44.05649636 157.77651005 60.12097591 152.21721225 76.5859375 151.27734375 C80.08862994 151.05384559 82.89029293 150.76324461 86.1953125 149.6015625 C87.70530245 147.5612907 87.70530245 147.5612907 88.5390625 144.83203125 C88.94398926 143.74575439 89.34891602 142.65947754 89.76611328 141.5402832 C89.98865784 140.91997223 90.21120239 140.29966125 90.44049072 139.66055298 C91.5920841 136.51925542 92.84750121 133.42087115 94.09176636 130.31535339 C95.5578123 126.6531386 97.00362911 122.98303549 98.45117188 119.31347656 C99.55997382 116.50277007 100.67046456 113.69273563 101.78125 110.8828125 C103.92463504 105.45783433 106.06211146 100.0305529 108.1953125 94.6015625 C108.54468872 93.71263306 108.89406494 92.82370361 109.25402832 91.90783691 C110.2496267 89.37168474 111.24255061 86.83450512 112.234375 84.296875 C112.68531021 83.14818436 112.68531021 83.14818436 113.14535522 81.97628784 C114.57112846 78.87582894 114.57112846 78.87582894 115.1953125 75.6015625 C81.5353125 75.6015625 47.8753125 75.6015625 13.1953125 75.6015625 Z M-141.8046875 88.6015625 C-144.31158365 94.99150425 -146.81818598 101.38156122 -149.32458496 107.771698 C-150.22795899 110.07487047 -151.13136068 112.37803209 -152.03479004 114.68118286 C-156.98219137 127.29427608 -161.92690555 139.90840275 -166.859375 152.52734375 C-167.25877289 153.54894592 -167.65817078 154.5705481 -168.06967163 155.62310791 C-169.95222974 160.43861702 -171.83399625 165.25443263 -173.71435547 170.07080078 C-174.40580018 171.84021785 -175.09736659 173.60958737 -175.7890625 175.37890625 C-176.11846832 176.22225525 -176.44787415 177.06560425 -176.78726196 177.93450928 C-178.53347385 182.39450215 -180.30112072 186.84487602 -182.09570312 191.28564453 C-182.46826233 192.2089003 -182.84082153 193.13215607 -183.22467041 194.08338928 C-183.94006646 195.85260065 -184.65848021 197.62059561 -185.38031006 199.38719177 C-185.85769623 200.56753746 -185.85769623 200.56753746 -186.34472656 201.77172852 C-186.7686972 202.81176781 -186.7686972 202.81176781 -187.20123291 203.87281799 C-187.91454381 205.61109933 -187.91454381 205.61109933 -187.8046875 207.6015625 C-156.7846875 207.6015625 -125.7646875 207.6015625 -93.8046875 207.6015625 C-98.4567099 194.29826971 -98.4567099 194.29826971 -103.4765625 181.15234375 C-103.7967334 180.3463826 -104.1169043 179.54042145 -104.44677734 178.71003723 C-105.1283033 176.99521053 -105.81121968 175.28093581 -106.4954834 173.56719971 C-108.35547113 168.90822731 -110.20423327 164.2447964 -112.0546875 159.58203125 C-112.43977478 158.61249512 -112.82486206 157.64295898 -113.22161865 156.64404297 C-117.7034611 145.35290451 -122.13069622 134.04046466 -126.5546875 122.7265625 C-126.93427612 121.75651276 -127.31386475 120.78646301 -127.70495605 119.78701782 C-131.76815526 109.40327425 -135.82088447 99.01608524 -139.8046875 88.6015625 C-140.4646875 88.6015625 -141.1246875 88.6015625 -141.8046875 88.6015625 Z M122.1953125 88.6015625 C121.9661615 89.18070404 121.7370105 89.75984558 121.50091553 90.35653687 C119.09995417 96.42446559 116.69873197 102.49229105 114.29736328 108.56005859 C113.40309163 110.81979813 112.50888484 113.07956334 111.61474609 115.33935547 C110.32406703 118.60130579 109.033149 121.86316145 107.7421875 125.125 C107.1497525 126.62249283 107.1497525 126.62249283 106.54534912 128.15023804 C106.16525696 129.11047882 105.78516479 130.0707196 105.39355469 131.06005859 C105.02951538 131.9827655 104.66547607 132.90547241 104.29040527 133.85614014 C103.54688355 135.72016591 102.79063819 137.5791567 102.02307129 139.43341064 C101.47266174 140.76888947 101.47266174 140.76888947 100.91113281 142.13134766 C100.58091125 142.92110992 100.2506897 143.71087219 99.91046143 144.52456665 C99.03253211 146.70821174 99.03253211 146.70821174 99.1953125 149.6015625 C99.79255127 149.66625732 100.38979004 149.73095215 101.00512695 149.79760742 C114.78584217 151.33260438 127.90350021 153.65359741 141.1953125 157.6015625 C142.31679688 157.92769531 143.43828125 158.25382812 144.59375 158.58984375 C146.79986114 159.24178976 148.99896219 159.91745339 151.1953125 160.6015625 C149.10871507 153.15778294 146.51625996 146.00344421 143.66796875 138.8203125 C143.23777939 137.72618042 142.80759003 136.63204834 142.36436462 135.50476074 C140.99928077 132.03553027 139.62861684 128.56853603 138.2578125 125.1015625 C137.34143321 122.77488278 136.42541435 120.44806107 135.50976562 118.12109375 C132.41467271 110.25812913 132.41467271 110.25812913 129.30081177 102.40258789 C128.55009155 100.5004732 127.81245828 98.59315173 127.0866394 96.68139648 C126.7376358 95.77268799 126.3886322 94.86397949 126.02905273 93.92773438 C125.72305649 93.11751831 125.41706024 92.30730225 125.10179138 91.47253418 C124.34273755 89.4211347 124.34273755 89.4211347 122.1953125 88.6015625 Z M-5.8046875 203.6015625 C-6.2996875 204.05144531 -6.7946875 204.50132812 -7.3046875 204.96484375 C-27.32228448 223.63866686 -38.5906379 252.05933967 -42.8046875 278.6015625 C-42.93617188 279.42140625 -43.06765625 280.24125 -43.203125 281.0859375 C-47.49297248 314.70906641 -38.74260168 350.8183095 -18.44580078 378.07080078 C-13.05531696 385.02355657 -7.10387936 391.46813885 -0.8046875 397.6015625 C-0.12986328 398.3440625 -0.12986328 398.3440625 0.55859375 399.1015625 C21.15785837 421.18315634 54.86278382 434.21236497 84.67871094 435.7277832 C121.99488901 436.80618651 155.86742244 426.36022877 184.1953125 401.6015625 C184.97261719 400.95703125 185.74992188 400.3125 186.55078125 399.6484375 C192.55900159 394.56058138 197.39112242 388.82027175 202.1953125 382.6015625 C203.16404297 381.40853516 203.16404297 381.40853516 204.15234375 380.19140625 C225.51974523 352.73146667 234.41102551 316.73234721 230.69921875 282.38671875 C226.513997 249.61301853 211.80735484 221.5922353 188.1953125 198.6015625 C187.52048828 197.8590625 187.52048828 197.8590625 186.83203125 197.1015625 C165.15245186 173.86191412 130.47342168 161.57784123 99.2890625 160.37890625 C58.66064163 159.40206051 22.52921396 174.50187992 -5.8046875 203.6015625 Z M-190.8046875 218.6015625 C-188.06725042 235.02618499 -183.75444883 247.09924942 -170.05078125 257.10546875 C-158.77927712 264.61327063 -146.20591646 267.07028137 -132.8046875 265.6015625 C-118.19435935 262.65094248 -106.63281804 255.63961735 -98.375 243.234375 C-93.60871279 235.24313725 -92.37199531 228.00540938 -90.8046875 218.6015625 C-123.8046875 218.6015625 -156.8046875 218.6015625 -190.8046875 218.6015625 Z M-65.8046875 334.6015625 C-66.8359375 335.3646875 -67.8671875 336.1278125 -68.9296875 336.9140625 C-75.15372509 342.73218459 -79.99706649 348.98632047 -83.8046875 356.6015625 C-70.6046875 356.6015625 -57.4046875 356.6015625 -43.8046875 356.6015625 C-44.48761948 353.18690262 -45.21689249 349.98561658 -46.1796875 346.66015625 C-46.44265625 345.74685547 -46.705625 344.83355469 -46.9765625 343.89257812 C-47.24984375 342.95091797 -47.523125 342.00925781 -47.8046875 341.0390625 C-48.34693743 339.1629289 -48.8886257 337.28663284 -49.4296875 335.41015625 C-49.66945312 334.58314209 -49.90921875 333.75612793 -50.15625 332.90405273 C-50.74563674 330.81124163 -51.29004624 328.71383716 -51.8046875 326.6015625 C-57.33066843 326.6015625 -61.54748092 331.34569022 -65.8046875 334.6015625 Z M-190.8046875 367.6015625 C-190.8046875 374.2015625 -190.8046875 380.8015625 -190.8046875 387.6015625 C-136.3546875 387.6015625 -81.9046875 387.6015625 -25.8046875 387.6015625 C-26.7946875 385.6215625 -26.7946875 385.6215625 -27.8046875 383.6015625 C-28.20666946 382.32652622 -28.59714264 381.04780936 -28.97653198 379.76586914 C-30.89697892 374.66668789 -33.18274554 370.65762084 -37.8046875 367.6015625 C-47.97746088 364.69365837 -59.24377725 365.6906459 -69.71377802 365.97925949 C-73.97478912 366.07973228 -78.23600354 366.08871298 -82.49801636 366.10766602 C-90.55649494 366.15727039 -98.61147345 366.28837481 -106.66841495 366.44925785 C-115.84572663 366.62850823 -125.02321147 366.71616756 -134.20183969 366.79638481 C-153.0714906 366.96333697 -171.93767857 367.24774403 -190.8046875 367.6015625 Z " fill="#000000" transform="translate(235.8046875,34.3984375)"/>
<path d="M0 0 C2.0625 2.19140625 2.0625 2.19140625 2.54437351 5.41984653 C1.92504892 10.26721755 -0.22203774 12.45554536 -3.5849762 15.72776794 C-4.19257009 16.34628177 -4.80016398 16.9647956 -5.42616981 17.60205227 C-7.46639911 19.67020224 -9.53074126 21.71242851 -11.59594727 23.75561523 C-13.06386128 25.23301434 -14.53028193 26.7118985 -15.99531555 28.19215393 C-19.97935009 32.20812644 -23.98524299 36.20160937 -27.9963429 40.19052768 C-32.18894498 44.36542174 -36.36445705 48.55735135 -40.54270935 52.74659729 C-47.56255281 59.77918014 -54.59703662 66.7968652 -61.63989258 73.80639648 C-69.78510571 81.91351323 -77.90479356 90.04554059 -86.01168019 98.19096893 C-92.96957072 105.18061312 -99.94099516 112.15653824 -106.92393726 119.12115532 C-111.09592899 123.28222719 -115.26303112 127.44789962 -119.41800117 131.62597466 C-123.32484561 135.55302237 -127.24838325 139.46258352 -131.18552971 143.35924339 C-132.62870218 144.79315051 -134.06593319 146.23306572 -135.49674988 147.67930222 C-137.44915833 149.65080414 -139.42179192 151.59952926 -141.40113831 153.54393005 C-141.96439066 154.12279746 -142.52764301 154.70166487 -143.10796362 155.29807371 C-146.02444038 158.11530846 -147.64778613 159.15680796 -151.725173 159.64373875 C-154.9375 159.19140625 -154.9375 159.19140625 -156.87109375 157.6015625 C-174.41085624 130.22130988 -180.79865657 99.14490139 -174.15625 67.22265625 C-169.31752485 47.36719789 -159.57784382 30.25167511 -145.9375 15.19140625 C-145.22980469 14.38832031 -144.52210938 13.58523437 -143.79296875 12.7578125 C-125.21749455 -7.16731375 -97.33857554 -17.99841872 -70.5703125 -19.70703125 C-44.81056751 -20.42719616 -21.88723136 -13.47578208 0 0 Z M-129.9375 16.19140625 C-130.5975 16.70832031 -131.2575 17.22523438 -131.9375 17.7578125 C-148.13664244 30.78897748 -157.848448 50.43391025 -162.9375 70.19140625 C-163.18242187 71.073125 -163.42734375 71.95484375 -163.6796875 72.86328125 C-169.22050902 96.69640397 -163.56141914 123.58601424 -150.9375 144.19140625 C-143.87915656 138.42221368 -137.54545378 131.93262733 -131.11743164 125.48486328 C-129.8259901 124.19313935 -128.53432769 122.90163621 -127.24246216 121.6103363 C-123.75107636 118.11923645 -120.26277413 114.62507035 -116.77503133 111.13033152 C-113.12398848 107.47302128 -109.47009804 103.81855822 -105.81651306 100.16378784 C-98.90508248 93.24925391 -91.99620417 86.33217566 -85.08824676 79.41417205 C-77.22080732 71.5355405 -69.35051528 63.65976118 -61.47998631 55.78421617 C-45.29598898 39.58977702 -29.11556432 23.39177225 -12.9375 7.19140625 C-15.77999552 4.16903944 -18.89845356 2.49210029 -22.625 0.75390625 C-23.27911865 0.4482373 -23.9332373 0.14256836 -24.60717773 -0.17236328 C-31.81366785 -3.40052871 -39.21271925 -5.23141568 -46.9375 -6.80859375 C-48.31421875 -7.09863281 -48.31421875 -7.09863281 -49.71875 -7.39453125 C-78.72377223 -11.12575984 -107.86708045 -3.08079939 -129.9375 16.19140625 Z " fill="#000000" transform="translate(393.9375,239.80859375)"/>
<path d="M0 0 C13.6938854 11.25941688 19.80823926 38.23396764 21.53564453 55.046875 C24.10930354 83.96862009 16.58061783 113.3526809 -2 136 C-4.91466718 139.41893486 -7.92081807 142.72907414 -11 146 C-11.53882813 146.60328125 -12.07765625 147.2065625 -12.6328125 147.828125 C-31.93926249 168.58983504 -60.61233582 177.43695351 -88.09375 179.12890625 C-112.35461144 179.82873879 -134.565371 171.41196439 -155 159 C-157 157 -157 157 -157.47796726 153.78352261 C-156.86433752 148.92611464 -154.72124036 146.74148313 -151.3525238 143.46363831 C-150.74492991 142.84512448 -150.13733602 142.22661065 -149.51133019 141.58935398 C-147.47110089 139.52120401 -145.40675874 137.47897774 -143.34155273 135.43579102 C-141.87363872 133.95839191 -140.40721807 132.47950775 -138.94218445 130.99925232 C-134.95814991 126.98327981 -130.95225701 122.98979688 -126.9411571 119.00087857 C-122.74855502 114.82598451 -118.57304295 110.6340549 -114.39479065 106.44480896 C-107.37494719 99.41222611 -100.34046338 92.39454105 -93.29760742 85.38500977 C-85.15239429 77.27789302 -77.03270644 69.14586566 -68.92581981 61.00043732 C-61.96792928 54.01079313 -54.99650484 47.03486801 -48.01356274 40.07025093 C-43.84157101 35.90917906 -39.67446888 31.74350663 -35.51949883 27.56543159 C-31.61265439 23.63838388 -27.68911675 19.72882273 -23.75197029 15.83216286 C-22.30879782 14.39825574 -20.87156681 12.95834053 -19.44075012 11.51210403 C-17.48834167 9.54060211 -15.51570808 7.59187699 -13.53636169 5.6474762 C-12.97310934 5.06860879 -12.40985699 4.48974138 -11.82953638 3.89333254 C-7.93385253 0.1302112 -5.36485742 -0.75543348 0 0 Z M-8.71479803 18.58571672 C-9.24494511 19.11877664 -9.77509218 19.65183656 -10.32130432 20.2010498 C-10.88160542 20.76049648 -11.44190652 21.31994315 -12.01918644 21.89634275 C-13.91174672 23.78724497 -15.80069122 25.68171944 -17.68969727 27.57617188 C-19.03936663 28.92612307 -20.38925575 30.27585458 -21.73934937 31.62538147 C-25.41703583 35.30277978 -29.09162039 38.98326386 -32.7656796 42.66428566 C-36.60095496 46.50579169 -40.4390426 50.34448577 -44.27684021 54.18347168 C-51.54970795 61.45945359 -58.82002178 68.73798195 -66.08943456 76.01741552 C-74.36303177 84.30217122 -82.63945218 92.58410406 -90.91611779 100.86579418 C-107.94723471 117.90737742 -124.97478092 134.95252472 -142 152 C-139.14475667 155.04101512 -135.99883524 156.69961669 -132.25 158.4375 C-131.26495483 158.89600342 -131.26495483 158.89600342 -130.26000977 159.36376953 C-105.99720621 170.25303349 -77.97362382 169.8890939 -53.31689453 160.62182617 C-45.18855683 157.3887794 -37.99448129 153.28778839 -31 148 C-30.05511719 147.2884375 -29.11023438 146.576875 -28.13671875 145.84375 C-17.06029449 137.14193952 -9.07836878 127.04255421 -2 115 C-1.43152344 114.03320312 -0.86304688 113.06640625 -0.27734375 112.0703125 C11.26590699 90.75515385 13.69047059 63.17579011 7 40 C4.29622448 31.08329351 0.7564675 23.00917208 -4 15 C-6.07716152 15 -7.32580944 17.2024991 -8.71479803 18.58571672 Z " fill="#000000" transform="translate(420,266)"/>
</svg>
