<?xml version="1.0" encoding="UTF-8"?>
<svg version="1.1" xmlns="http://www.w3.org/2000/svg" width="204" height="192">
<path d="M0 0 C5.10863896 -0.0246501 10.21724359 -0.04283607 15.32592773 -0.05493164 C17.06519168 -0.05997204 18.80445136 -0.0668043 20.54370117 -0.07543945 C23.03825937 -0.08751792 25.53276173 -0.09323108 28.02734375 -0.09765625 C28.80963852 -0.10281754 29.59193329 -0.10797882 30.39793396 -0.11329651 C32.26567114 -0.11349226 34.13329204 -0.06199694 36 0 C37 1 37 1 37.11352539 4.23461914 C37.11336631 5.66814126 37.10767407 7.10166912 37.09765625 8.53515625 C37.0962413 9.28840683 37.09482635 10.04165741 37.09336853 10.81773376 C37.08775376 13.2326956 37.07519883 15.64756601 37.0625 18.0625 C37.0574869 19.69596221 37.05292366 21.32942586 37.04882812 22.96289062 C37.03777954 26.97529585 37.02050506 30.98763241 37 35 C37.79957626 34.99777939 38.59915253 34.99555878 39.42295837 34.99327087 C46.94259639 34.97326908 54.46222159 34.95802645 61.98187923 34.94818783 C65.84820118 34.94295974 69.71450121 34.93586346 73.58081055 34.92456055 C77.30903401 34.913729 81.03723634 34.9077226 84.76547432 34.90512276 C86.19089656 34.90326899 87.61631759 34.89964929 89.04173088 34.89426994 C91.03163408 34.88705607 93.02155834 34.88659192 95.01147461 34.88647461 C96.14620712 34.884254 97.28093964 34.88203339 98.45005798 34.87974548 C101 35 101 35 102 36 C102.09523905 38.89143151 102.12553027 41.75892064 102.11352539 44.65063477 C102.11367142 45.55786285 102.11381744 46.46509094 102.1139679 47.39981079 C102.11326841 50.41369985 102.10547434 53.42752793 102.09765625 56.44140625 C102.0957922 58.52505967 102.09436824 60.60871354 102.09336853 62.69236755 C102.08954234 68.18823446 102.0797112 73.68407513 102.06866455 79.17993164 C102.0584526 84.78336227 102.05387137 90.38679713 102.04882812 95.99023438 C102.03808902 106.99350114 102.02101139 117.99674839 102 129 C97.72403625 130.83811505 94.4806567 131.2572451 89.80078125 131.265625 C89.12452194 131.26753845 88.44826263 131.2694519 87.75151062 131.27142334 C86.33034897 131.27277813 84.90917465 131.26913124 83.48803711 131.26074219 C81.3088022 131.24998174 79.1303822 131.26068641 76.95117188 131.2734375 C75.56770651 131.27211676 74.18424166 131.26955614 72.80078125 131.265625 C71.54434814 131.26336914 70.28791504 131.26111328 68.9934082 131.25878906 C66 131 66 131 64 129 C63.75949097 126.70944214 63.75949097 126.70944214 63.77294922 123.81591797 C63.77310028 122.73494843 63.77325134 121.65397888 63.77340698 120.54025269 C63.78372955 119.36939117 63.79405212 118.19852966 63.8046875 116.9921875 C63.8075174 115.79643097 63.81034729 114.60067444 63.81326294 113.36868286 C63.82448695 109.53735481 63.84959569 105.70625778 63.875 101.875 C63.88502692 99.28255545 63.89415327 96.69010725 63.90234375 94.09765625 C63.92273467 87.73160952 63.96187985 81.36606434 64 75 C50.635 75.495 50.635 75.495 37 76 C38.44512071 84.80283594 38.44512071 84.80283594 44 90 C46.2698049 90.67412946 46.2698049 90.67412946 48.68359375 91.12890625 C49.4923999 91.29592041 50.30120605 91.46293457 51.13452148 91.63500977 C51.75012939 91.75545654 52.3657373 91.87590332 53 92 C53.02464928 97.25105442 53.04283568 102.50207545 53.05493164 107.75317383 C53.05997218 109.54094021 53.06680454 111.32870245 53.07543945 113.11645508 C53.0875173 115.68051168 53.09323094 118.24451397 53.09765625 120.80859375 C53.10281754 121.6127623 53.10797882 122.41693085 53.11329651 123.24546814 C53.11349215 125.16401715 53.06201983 127.08245368 53 129 C51.20043576 130.79956424 48.62085788 130.25765564 46.1875 130.3125 C39.16371812 130.26624019 33.46185191 128.62807096 27 126 C26.23945312 125.69191406 25.47890625 125.38382812 24.6953125 125.06640625 C23.11856943 124.40468074 21.55669989 123.70759086 20 123 C20 123.66 20 124.32 20 125 C9.46270297 134.63895604 -4.78485464 138.33130109 -18.75 138.2265625 C-24.49679401 137.82594465 -31.79160425 137.20839575 -36 133 C-36.17495606 130.49079154 -36.23169569 128.09375059 -36.1953125 125.5859375 C-36.1924826 124.85629791 -36.18965271 124.12665833 -36.18673706 123.37490845 C-36.17553002 121.04143972 -36.1504251 118.70835297 -36.125 116.375 C-36.11497085 114.79427637 -36.10584489 113.21354673 -36.09765625 111.6328125 C-36.07558905 107.75506086 -36.04105615 103.87759522 -36 100 C-35.11574341 100.20459839 -35.11574341 100.20459839 -34.21362305 100.41333008 C-22.56634892 103.3616594 -22.56634892 103.3616594 -11 102 C-4.64840753 96.86670867 -2.32438199 90.86729757 -1 83 C-0.44592916 76.60756555 -0.51047342 70.18078179 -0.48828125 63.76953125 C-0.47140819 61.92436041 -0.45325447 60.07920088 -0.43388367 58.23405457 C-0.3866626 53.41242 -0.35667365 48.59083131 -0.33044434 43.76904297 C-0.30049704 38.83486882 -0.25401587 33.90085233 -0.20898438 28.96679688 C-0.12326917 19.31128087 -0.05578359 9.65573213 0 0 Z " fill="#983C38" transform="translate(69,30)"/>
<path d="M0 0 C0.33 0 0.66 0 1 0 C1 11.22 1 22.44 1 34 C5.60839844 33.98839844 10.21679688 33.97679687 14.96484375 33.96484375 C17.87695452 33.95973679 20.78905981 33.954923 23.70117188 33.95117188 C28.3277297 33.94518421 32.95426782 33.93808596 37.58081055 33.92456055 C41.30903401 33.913729 45.03723634 33.9077226 48.76547432 33.90512276 C50.19089656 33.90326899 51.61631759 33.89964929 53.04173088 33.89426994 C55.03163408 33.88705607 57.02155834 33.88659192 59.01147461 33.88647461 C60.14620712 33.884254 61.28093964 33.88203339 62.45005798 33.87974548 C65 34 65 34 66 35 C66.09523905 37.89143151 66.12553027 40.75892064 66.11352539 43.65063477 C66.11367142 44.55786285 66.11381744 45.46509094 66.1139679 46.39981079 C66.11326841 49.41369985 66.10547434 52.42752793 66.09765625 55.44140625 C66.0957922 57.52505967 66.09436824 59.60871354 66.09336853 61.69236755 C66.08954234 67.18823446 66.0797112 72.68407513 66.06866455 78.17993164 C66.0584526 83.78336227 66.05387137 89.38679713 66.04882812 94.99023438 C66.03808902 105.99350114 66.02101139 116.99674839 66 128 C61.72403625 129.83811505 58.4806567 130.2572451 53.80078125 130.265625 C53.12452194 130.26753845 52.44826263 130.2694519 51.75151062 130.27142334 C50.33034897 130.27277813 48.90917465 130.26913124 47.48803711 130.26074219 C45.3088022 130.24998174 43.1303822 130.26068641 40.95117188 130.2734375 C39.56770651 130.27211676 38.18424166 130.26955614 36.80078125 130.265625 C35.54434814 130.26336914 34.28791504 130.26111328 32.9934082 130.25878906 C30 130 30 130 28 128 C27.75949097 125.70944214 27.75949097 125.70944214 27.77294922 122.81591797 C27.77310028 121.73494843 27.77325134 120.65397888 27.77340698 119.54025269 C27.78372955 118.36939117 27.79405212 117.19852966 27.8046875 115.9921875 C27.8075174 114.79643097 27.81034729 113.60067444 27.81326294 112.36868286 C27.82448695 108.53735481 27.84959569 104.70625778 27.875 100.875 C27.88502692 98.28255545 27.89415327 95.69010725 27.90234375 93.09765625 C27.92273467 86.73160952 27.96187985 80.36606434 28 74 C18.76 74 9.52 74 0 74 C0 49.58 0 25.16 0 0 Z " fill="#F99C1D" transform="translate(105,31)"/>
<path d="M0 0 C0.33 0 0.66 0 1 0 C1 11.22 1 22.44 1 34 C5.60839844 33.98839844 10.21679688 33.97679687 14.96484375 33.96484375 C17.87695452 33.95973679 20.78905981 33.954923 23.70117188 33.95117188 C28.3277297 33.94518421 32.95426782 33.93808596 37.58081055 33.92456055 C41.30903401 33.913729 45.03723634 33.9077226 48.76547432 33.90512276 C50.19089656 33.90326899 51.61631759 33.89964929 53.04173088 33.89426994 C55.03163408 33.88705607 57.02155834 33.88659192 59.01147461 33.88647461 C60.14620712 33.884254 61.28093964 33.88203339 62.45005798 33.87974548 C65 34 65 34 66 35 C66.09523905 37.89143151 66.12553027 40.75892064 66.11352539 43.65063477 C66.11367142 44.55786285 66.11381744 45.46509094 66.1139679 46.39981079 C66.11326841 49.41369985 66.10547434 52.42752793 66.09765625 55.44140625 C66.0957922 57.52505967 66.09436824 59.60871354 66.09336853 61.69236755 C66.08954234 67.18823446 66.0797112 72.68407513 66.06866455 78.17993164 C66.0584526 83.78336227 66.05387137 89.38679713 66.04882812 94.99023438 C66.03808902 105.99350114 66.02101139 116.99674839 66 128 C61.72403625 129.83811505 58.4806567 130.2572451 53.80078125 130.265625 C53.12452194 130.26753845 52.44826263 130.2694519 51.75151062 130.27142334 C50.33034897 130.27277813 48.90917465 130.26913124 47.48803711 130.26074219 C45.3088022 130.24998174 43.1303822 130.26068641 40.95117188 130.2734375 C39.56770651 130.27211676 38.18424166 130.26955614 36.80078125 130.265625 C35.54434814 130.26336914 34.28791504 130.26111328 32.9934082 130.25878906 C30 130 30 130 28 128 C27.75949097 125.70944214 27.75949097 125.70944214 27.77294922 122.81591797 C27.77310028 121.73494843 27.77325134 120.65397888 27.77340698 119.54025269 C27.78372955 118.36939117 27.79405212 117.19852966 27.8046875 115.9921875 C27.8075174 114.79643097 27.81034729 113.60067444 27.81326294 112.36868286 C27.82448695 108.53735481 27.84959569 104.70625778 27.875 100.875 C27.88502692 98.28255545 27.89415327 95.69010725 27.90234375 93.09765625 C27.92273467 86.73160952 27.96187985 80.36606434 28 74 C18.76 74 9.52 74 0 74 C0 73.67 0 73.34 0 73 C21.12 73 42.24 73 64 73 C64 60.46 64 47.92 64 35 C42.88 35 21.76 35 0 35 C0 23.45 0 11.9 0 0 Z " fill="#FBBE14" transform="translate(105,31)"/>
<path d="M0 0 C0.29390625 1.23363281 0.29390625 1.23363281 0.59375 2.4921875 C2.82556335 10.82300803 5.91388383 16.83484336 12 23 C12.66 23.33 13.32 23.66 14 24 C14 24.66 14 25.32 14 26 C16.475 26.99 16.475 26.99 19 28 C18.64067825 30.69196784 18.17928992 31.8253974 16.20703125 33.74609375 C4.12665438 42.27921477 -9.28467393 46.02582802 -24 45 C-34.95211268 43.04788732 -34.95211268 43.04788732 -38 40 C-38.17495606 37.49079154 -38.23169569 35.09375059 -38.1953125 32.5859375 C-38.1924826 31.85629791 -38.18965271 31.12665833 -38.18673706 30.37490845 C-38.17553002 28.04143972 -38.1504251 25.70835297 -38.125 23.375 C-38.11497085 21.79427637 -38.10584489 20.21354673 -38.09765625 18.6328125 C-38.07558905 14.75506086 -38.04105615 10.87759522 -38 7 C-37.41049561 7.13639893 -36.82099121 7.27279785 -36.21362305 7.41333008 C-24.62100637 10.25270799 -24.62100637 10.25270799 -13 9 C-10.31256494 6.72926391 -10.31256494 6.72926391 -8 4 C-4.43243243 0 -4.43243243 0 0 0 Z " fill="#1E2B4C" transform="translate(71,123)"/>
<path d="M0 0 C5.03211389 3.01926834 8.6385801 7.06444946 10.125 12.875 C10.98781032 18.93799146 10.15712733 23.11985717 6.62109375 28.1484375 C3.55819337 31.68316849 -0.18244479 34.32293468 -4.875 34.875 C-12.30541236 35.37036082 -17.91515375 34.32009038 -23.75 29.5 C-27.46860134 24.90643364 -28.34245464 21.03532745 -28.1875 15.21484375 C-27.45849977 9.75645451 -24.93701508 5.52716525 -20.8125 1.9375 C-14.91472398 -2.20349168 -6.75814498 -2.53058292 0 0 Z " fill="#FCBE11" transform="translate(160.875,25.125)"/>
<path d="M0 0 C9.57 0 19.14 0 29 0 C29 12.21 29 24.42 29 37 C19.43 37 9.86 37 0 37 C0 24.79 0 12.58 0 0 Z " fill="#EF5429" transform="translate(105,67)"/>
<path d="M0 0 C0.33 0 0.66 0 1 0 C1.08636719 0.59167969 1.17273438 1.18335937 1.26171875 1.79296875 C2.23758097 7.28107466 3.23382086 10.6535338 8 14 C10.2698049 14.67412946 10.2698049 14.67412946 12.68359375 15.12890625 C13.4923999 15.29592041 14.30120605 15.46293457 15.13452148 15.63500977 C15.75012939 15.75545654 16.3657373 15.87590332 17 16 C17.02464928 21.25105442 17.04283568 26.50207545 17.05493164 31.75317383 C17.05997218 33.54094021 17.06680454 35.32870245 17.07543945 37.11645508 C17.0875173 39.68051168 17.09323094 42.24451397 17.09765625 44.80859375 C17.10281754 45.6127623 17.10797882 46.41693085 17.11329651 47.24546814 C17.11349215 49.16401715 17.06201983 51.08245368 17 53 C15.20043576 54.79956424 12.62085788 54.25765564 10.1875 54.3125 C3.16371812 54.26624019 -2.53814809 52.62807096 -9 50 C-9.76054688 49.69191406 -10.52109375 49.38382813 -11.3046875 49.06640625 C-12.88143057 48.40468074 -14.44330011 47.70759086 -16 47 C-15.67 46.34 -15.34 45.68 -15 45 C-14.34 45 -13.68 45 -13 45 C-12.73058594 44.443125 -12.46117188 43.88625 -12.18359375 43.3125 C-11.37055321 41.72398515 -10.50496908 40.16161894 -9.59765625 38.625 C-2.47040176 26.43793889 -1.30208779 13.78681194 0 0 Z " fill="#EB613A" transform="translate(105,106)"/>
<path d="M0 0 C0.33 0 0.66 0 1 0 C1 11.22 1 22.44 1 34 C5.60839844 33.98839844 10.21679688 33.97679687 14.96484375 33.96484375 C17.87695452 33.95973679 20.78905981 33.954923 23.70117188 33.95117188 C28.3277297 33.94518421 32.95426782 33.93808596 37.58081055 33.92456055 C41.30903401 33.913729 45.03723634 33.9077226 48.76547432 33.90512276 C50.19089656 33.90326899 51.61631759 33.89964929 53.04173088 33.89426994 C55.03163408 33.88705607 57.02155834 33.88659192 59.01147461 33.88647461 C60.14620712 33.884254 61.28093964 33.88203339 62.45005798 33.87974548 C65 34 65 34 66 35 C66.09523905 37.89143151 66.12553027 40.75892064 66.11352539 43.65063477 C66.11367142 44.55786285 66.11381744 45.46509094 66.1139679 46.39981079 C66.11326841 49.41369985 66.10547434 52.42752793 66.09765625 55.44140625 C66.0957922 57.52505967 66.09436824 59.60871354 66.09336853 61.69236755 C66.08954234 67.18823446 66.0797112 72.68407513 66.06866455 78.17993164 C66.0584526 83.78336227 66.05387137 89.38679713 66.04882812 94.99023438 C66.03808902 105.99350114 66.02101139 116.99674839 66 128 C61.72403625 129.83811505 58.4806567 130.2572451 53.80078125 130.265625 C53.12452194 130.26753845 52.44826263 130.2694519 51.75151062 130.27142334 C50.33034897 130.27277813 48.90917465 130.26913124 47.48803711 130.26074219 C45.3088022 130.24998174 43.1303822 130.26068641 40.95117188 130.2734375 C39.56770651 130.27211676 38.18424166 130.26955614 36.80078125 130.265625 C35.54434814 130.26336914 34.28791504 130.26111328 32.9934082 130.25878906 C30 130 30 130 28 128 C27.75949097 125.70944214 27.75949097 125.70944214 27.77294922 122.81591797 C27.77310028 121.73494843 27.77325134 120.65397888 27.77340698 119.54025269 C27.78372955 118.36939117 27.79405212 117.19852966 27.8046875 115.9921875 C27.8075174 114.79643097 27.81034729 113.60067444 27.81326294 112.36868286 C27.82448695 108.53735481 27.84959569 104.70625778 27.875 100.875 C27.88502692 98.28255545 27.89415327 95.69010725 27.90234375 93.09765625 C27.92273467 86.73160952 27.96187985 80.36606434 28 74 C18.76 74 9.52 74 0 74 C0 73.67 0 73.34 0 73 C9.9 73 19.8 73 30 73 C30 90.82 30 108.64 30 127 C41.22 127 52.44 127 64 127 C64 96.64 64 66.28 64 35 C42.88 35 21.76 35 0 35 C0 23.45 0 11.9 0 0 Z " fill="#FAE8B0" transform="translate(105,31)"/>
<path d="M0 0 C9.57 0 19.14 0 29 0 C29 12.21 29 24.42 29 37 C19.43 37 9.86 37 0 37 C0 24.79 0 12.58 0 0 Z M5 3 C5 3.66 5 4.32 5 5 C3.68 5 2.36 5 1 5 C1.48578543 8.12290635 1.9986012 10.99580359 3 14 C2.34 14 1.68 14 1 14 C1 20.6 1 27.2 1 34 C4.74691447 35.39770584 4.74691447 35.39770584 7 34 C9.88370333 33.92805131 12.74239664 33.90708292 15.625 33.9375 C16.42679688 33.94201172 17.22859375 33.94652344 18.0546875 33.95117188 C20.03649006 33.96296832 22.01825433 33.98090395 24 34 C24.33 33.01 24.66 32.02 25 31 C25.99 31 26.98 31 28 31 C28 21.43 28 11.86 28 2 C24.57625 1.979375 21.1525 1.95875 17.625 1.9375 C16.00779053 1.92384399 16.00779053 1.92384399 14.35791016 1.90991211 C13.51019043 1.90741455 12.6624707 1.90491699 11.7890625 1.90234375 C10.91975098 1.89710693 10.05043945 1.89187012 9.15478516 1.88647461 C6.94950006 1.85877649 6.94950006 1.85877649 5 3 Z " fill="#E25728" transform="translate(105,67)"/>
<path d="M0 0 C5.03211389 3.01926834 8.6385801 7.06444946 10.125 12.875 C10.98781032 18.93799146 10.15712733 23.11985717 6.62109375 28.1484375 C3.55819337 31.68316849 -0.18244479 34.32293468 -4.875 34.875 C-12.30541236 35.37036082 -17.91515375 34.32009038 -23.75 29.5 C-27.46860134 24.90643364 -28.34245464 21.03532745 -28.1875 15.21484375 C-27.45849977 9.75645451 -24.93701508 5.52716525 -20.8125 1.9375 C-14.91472398 -2.20349168 -6.75814498 -2.53058292 0 0 Z M-20.875 3.875 C-24.8015211 9.36980616 -25.61879764 15.42236325 -25.3984375 22.05859375 C-24.58555312 26.43239704 -22.48848276 29.31406841 -18.875 31.875 C-13.00221245 33.97604037 -4.96682092 34.32414355 0.68359375 31.67578125 C4.99354762 28.53623687 7.62423314 25.72892796 8.56640625 20.359375 C8.81150686 14.82484512 8.51775963 11.60491726 4.75 7.375 C3.54508939 6.20479875 2.33710718 5.03774535 1.125 3.875 C0.465 2.885 -0.195 1.895 -0.875 0.875 C-7.58482446 -1.54053681 -15.57644183 -1.19020198 -20.875 3.875 Z " fill="#FDF2B7" transform="translate(160.875,25.125)"/>
<path d="M0 0 C21.12 0 42.24 0 64 0 C64 12.54 64 25.08 64 38 C63.67 38 63.34 38 63 38 C62.97494385 36.97527588 62.9498877 35.95055176 62.92407227 34.89477539 C62.83015516 31.10590324 62.72989683 27.31722119 62.62768555 23.52856445 C62.58427703 21.88635697 62.54260642 20.24410261 62.50268555 18.60180664 C62.4451256 16.24611255 62.38139108 13.89065572 62.31640625 11.53515625 C62.29969376 10.79660904 62.28298126 10.05806183 62.26576233 9.2971344 C62.46451987 5.85699373 62.46451987 5.85699373 61 3 C59.09920204 2.84692319 57.19291319 2.7615887 55.28686523 2.70288086 C53.45507973 2.6429319 53.45507973 2.6429319 51.58628845 2.58177185 C50.24372653 2.54269335 48.90116155 2.50371982 47.55859375 2.46484375 C46.19237461 2.42185283 44.82616879 2.37843637 43.4599762 2.33460999 C39.85812399 2.22021552 36.256119 2.11162436 32.65405273 2.00421143 C28.98084803 1.89365925 25.30781588 1.77766013 21.63476562 1.66210938 C14.42333548 1.43605306 7.2117354 1.21612283 0 1 C0 0.67 0 0.34 0 0 Z " fill="#E79E4C" transform="translate(105,66)"/>
<path d="M0 0 C0.33 0 0.66 0 1 0 C1.06058594 0.59167969 1.12117188 1.18335937 1.18359375 1.79296875 C1.62012371 5.90978208 2.08671346 9.95544533 3 14 C2.34 14 1.68 14 1 14 C1 21.26 1 28.52 1 36 C10.24 36 19.48 36 29 36 C29 36.33 29 36.66 29 37 C19.43 37 9.86 37 0 37 C0 24.79 0 12.58 0 0 Z " fill="#E16747" transform="translate(105,67)"/>
<path d="M0 0 C1.86606158 2.7105566 2.00163639 3.98303743 1.6796875 7.3203125 C-0.57712537 17.99087431 -3.06250507 27.3750063 -10 36 C-10.33 36 -10.66 36 -11 36 C-11 34.35 -11 32.7 -11 31 C-10.01 31 -9.02 31 -8 31 C-7.87496094 30.44828125 -7.74992187 29.8965625 -7.62109375 29.328125 C-6.92696724 26.72624197 -6.01586589 24.26832499 -5.0625 21.75 C-2.47712155 14.68016511 -0.84451113 8.61895459 -1 1 C-0.67 0.67 -0.34 0.34 0 0 Z " fill="#A73626" transform="translate(103,113)"/>
<path d="M0 0 C0.33 0.66 0.66 1.32 1 2 C0.2884375 3.175625 0.2884375 3.175625 -0.4375 4.375 C-2.68488764 9.58893933 -2.83704166 14.40228391 -2 20 C-0.61974231 22.86115918 0.83681039 24.62049143 3 27 C-0.8485897 25.27477013 -3.11639573 23.58118659 -5.1875 19.875 C-6.31260532 15.8938581 -6.16114058 12.10908479 -6 8 C-5.34 8 -4.68 8 -4 8 C-3.71125 7.05125 -3.4225 6.1025 -3.125 5.125 C-2 2 -2 2 0 0 Z " fill="#F3DE8B" transform="translate(139,30)"/>
<path d="M0 0 C1.98 0.99 1.98 0.99 4 2 C4 2.66 4 3.32 4 4 C5.32 4 6.64 4 8 4 C8.33 4.66 8.66 5.32 9 6 C12.14930893 7.04976964 14.38814456 7.10131595 17.6875 7.0625 C18.68136719 7.05347656 19.67523438 7.04445313 20.69921875 7.03515625 C21.45847656 7.02355469 22.21773437 7.01195312 23 7 C23 6.34 23 5.68 23 5 C25.31 4.34 27.62 3.68 30 3 C24.22379698 8.92820836 24.22379698 8.92820836 20.13671875 9.16796875 C18.99847656 9.17441406 17.86023438 9.18085937 16.6875 9.1875 C15.55699219 9.20167969 14.42648438 9.21585938 13.26171875 9.23046875 C9.27197909 8.948559 6.38532737 8.28955165 3.41796875 5.52734375 C0 1.11111111 0 1.11111111 0 0 Z " fill="#EBC141" transform="translate(136,49)"/>
<path d="M0 0 C1.25 2.0625 1.25 2.0625 2 4 C0.329375 3.4740625 0.329375 3.4740625 -1.375 2.9375 C-6.33063599 1.74040143 -11.10307441 1.37049131 -16 3 C-18.33652735 5.18494057 -19.44185401 7.14339902 -21 10 C-22 8 -22 8 -21.5 5.625 C-17.09961152 -2.07567985 -7.73606152 -2.60653477 0 0 Z " fill="#EDC340" transform="translate(160,26)"/>
<path d="M0 0 C2 3 2 3 3 5 C6.02934491 5.65772428 6.02934491 5.65772428 9 6 C9.268125 7.093125 9.53625 8.18625 9.8125 9.3125 C10.87663739 12.61692663 11.34654664 13.94960422 14 16 C11 16 11 16 9 15 C9 14.34 9 13.68 9 13 C8.40832031 12.75121094 7.81664063 12.50242188 7.20703125 12.24609375 C4.68285738 10.82094072 3.42088005 9.37223967 1.6875 7.0625 C0.88892578 6.02802734 0.88892578 6.02802734 0.07421875 4.97265625 C-0.28027344 4.32167969 -0.63476562 3.67070312 -1 3 C-0.67 2.01 -0.34 1.02 0 0 Z " fill="#874C55" transform="translate(76,134)"/>
<path d="M0 0 C0.33 0 0.66 0 1 0 C1.08636719 0.59167969 1.17273438 1.18335937 1.26171875 1.79296875 C2.23497219 7.26640325 3.26262665 10.63120117 8 14 C11.68441504 14.88527109 11.68441504 14.88527109 15 15 C15 15.33 15 15.66 15 16 C5.76923077 17.38461538 5.76923077 17.38461538 3 16 C0.6875 14.125 0.6875 14.125 -1 11 C-1.03672086 7.27020983 -0.59261243 3.67806191 0 0 Z " fill="#E49D83" transform="translate(105,106)"/>
<path d="M0 0 C0.99 0 1.98 0 3 0 C3 0.66 3 1.32 3 2 C2.34 2 1.68 2 1 2 C0.97421875 2.76183594 0.9484375 3.52367188 0.921875 4.30859375 C0.53321113 11.38404292 -0.59836973 16.78935798 -4 23 C-4.38027344 23.69609375 -4.76054688 24.3921875 -5.15234375 25.109375 C-6.07655962 26.75388723 -7.03451844 28.37937024 -8 30 C-8.66 29.67 -9.32 29.34 -10 29 C-9.41992188 28.12214844 -9.41992188 28.12214844 -8.828125 27.2265625 C-3.59554743 18.60058067 -1.82998275 9.78502539 0 0 Z " fill="#DE5636" transform="translate(104,118)"/>
<path d="M0 0 C0.33 0 0.66 0 1 0 C1.36504603 1.58086048 1.71660506 3.16483907 2.0625 4.75 C2.25972656 5.63171875 2.45695312 6.5134375 2.66015625 7.421875 C2.99825872 9.98679028 2.81158635 11.57091639 2 14 C2 13.01 2 12.02 2 11 C0.68 11 -0.64 11 -2 11 C-2.66 12.32 -3.32 13.64 -4 15 C-4 11.83157341 -3.40276804 9.42247931 -2.5625 6.375 C-2.29566406 5.39273438 -2.02882813 4.41046875 -1.75390625 3.3984375 C-1 1 -1 1 0 0 Z " fill="#5C4B59" transform="translate(69,112)"/>
<path d="M0 0 C0.33 0 0.66 0 1 0 C0.67 2.64 0.34 5.28 0 8 C-1.32 8 -2.64 8 -4 8 C-4.33 9.65 -4.66 11.3 -5 13 C-5.33 13 -5.66 13 -6 13 C-5.125 5.375 -5.125 5.375 -4 2 C-2.68 2.33 -1.36 2.66 0 3 C0 2.01 0 1.02 0 0 Z " fill="#9A403E" transform="translate(104,104)"/>
<path d="M0 0 C2.31 0 4.62 0 7 0 C4.85073619 2.39105598 3.00963087 3.63278854 0 4.75 C-0.680625 5.01296875 -1.36125 5.2759375 -2.0625 5.546875 C-4 6 -4 6 -7 5 C-6.34 4.01 -5.68 3.02 -5 2 C-3.35 2.33 -1.7 2.66 0 3 C0 2.01 0 1.02 0 0 Z " fill="#65697F" transform="translate(73,160)"/>
<path d="M0 0 C3.22659279 2.33927977 4.77318215 3.63099226 5.4375 7.640625 C5.5485885 12.83401253 5.55093862 15.98630608 2 20 C1.957279 18.33388095 1.95936168 16.66617115 2 15 C2.33 14.67 2.66 14.34 3 14 C3.39120525 8.91433169 2.87287952 6.18961597 0 2 C0 1.34 0 0.68 0 0 Z " fill="#EBBF3E" transform="translate(164,32)"/>
<path d="M0 0 C1.32 0 2.64 0 4 0 C4.33 2.31 4.66 4.62 5 7 C3.66666667 5.66666667 2.33333333 4.33333333 1 3 C-0.32 4.65 -1.64 6.3 -3 8 C-3.66 7.67 -4.32 7.34 -5 7 C-4.26708288 5.8225266 -3.51296199 4.65823146 -2.75 3.5 C-2.33234375 2.8503125 -1.9146875 2.200625 -1.484375 1.53125 C-0.74960938 0.77328125 -0.74960938 0.77328125 0 0 Z " fill="#191833" transform="translate(67,123)"/>
<path d="M0 0 C1.32 0 2.64 0 4 0 C6 3 6 3 7 5 C5.02 5.99 5.02 5.99 3 7 C2.67 6.34 2.34 5.68 2 5 C1.01 4.34 0.02 3.68 -1 3 C-0.67 2.01 -0.34 1.02 0 0 Z " fill="#373E5E" transform="translate(82,150)"/>
<path d="M0 0 C2.71675995 0.36712972 4.61063713 0.72744599 6.875 2.3125 C7.431875 3.1478125 7.431875 3.1478125 8 4 C7.5703125 6.10546875 7.5703125 6.10546875 7 8 C5.83035398 6.8572081 4.66435444 5.71068285 3.5 4.5625 C2.8503125 3.92441406 2.200625 3.28632813 1.53125 2.62890625 C0 1 0 1 0 0 Z " fill="#F2DC8A" transform="translate(160,27)"/>
<path d="M0 0 C1.98 0.99 1.98 0.99 4 2 C4 2.66 4 3.32 4 4 C6.475 4.99 6.475 4.99 9 6 C8.01 7.485 8.01 7.485 7 9 C6.34 8.67 5.68 8.34 5 8 C5 7.01 5 6.02 5 5 C3.68 4.67 2.36 4.34 1 4 C0.67 2.68 0.34 1.36 0 0 Z " fill="#201A33" transform="translate(81,145)"/>
<path d="M0 0 C1 3 1 3 1 5 C1.66 5 2.32 5 3 5 C3 5.66 3 6.32 3 7 C0.69 6.34 -1.62 5.68 -4 5 C-3.67 4.34 -3.34 3.68 -3 3 C-2.34 3 -1.68 3 -1 3 C-0.67 2.01 -0.34 1.02 0 0 Z " fill="#DF907D" transform="translate(93,148)"/>
<path d="M0 0 C2.31 0 4.62 0 7 0 C5.75 1.5 5.75 1.5 4 3 C2.68 3 1.36 3 0 3 C0 2.01 0 1.02 0 0 Z " fill="#505467" transform="translate(73,160)"/>
</svg>
