<?xml version="1.0" encoding="UTF-8"?>
<svg version="1.1" xmlns="http://www.w3.org/2000/svg" width="512" height="512">
<path d="M0 0 C0.6931277 -0.0072672 1.3862554 -0.01453441 2.10038698 -0.02202183 C4.4287169 -0.04030563 6.75540642 -0.02290289 9.08372498 -0.00571251 C10.76740392 -0.01147242 12.45107658 -0.01941266 14.13473606 -0.02934873 C18.76579888 -0.05026339 23.39634798 -0.039886 28.02741289 -0.02441764 C33.02000479 -0.01312691 38.01250697 -0.03055551 43.00508118 -0.04431725 C52.7872663 -0.06657855 62.56925988 -0.06173558 72.35145259 -0.04725404 C80.29991528 -0.03597317 88.2483242 -0.03442591 96.1967926 -0.03987312 C97.32701892 -0.04063929 98.45724525 -0.04140545 99.62172085 -0.04219484 C101.91758054 -0.04379342 104.21344022 -0.04541449 106.50929987 -0.04705779 C128.04981792 -0.06132377 149.59022966 -0.04490924 171.13073027 -0.01805596 C189.62317173 0.00428356 208.11545627 0.00040367 226.6078949 -0.02264977 C248.07005746 -0.04939276 269.5321268 -0.05995039 290.9943037 -0.04458845 C293.28183173 -0.04299566 295.56935976 -0.04142381 297.85688782 -0.03987312 C298.98246631 -0.03910175 300.1080448 -0.03833037 301.26773173 -0.03753562 C309.20887044 -0.03321412 317.14995014 -0.04051486 325.09107971 -0.05227089 C334.76551992 -0.06627775 344.43975723 -0.06253413 354.11417413 -0.03586717 C359.05254172 -0.02270458 363.99057073 -0.01761815 368.928936 -0.03411293 C373.44673493 -0.04897502 377.96388037 -0.04088649 382.48161972 -0.01422517 C384.11882309 -0.00862425 385.7560813 -0.01151661 387.39324963 -0.02360411 C389.6141849 -0.03874811 391.83286416 -0.02328449 394.05368042 0 C395.28847861 0.00081176 396.52327681 0.00162352 397.79549313 0.00245988 C401.97702647 0.81350199 403.46092735 2.28290897 406.02684021 5.6292057 C406.65358603 7.85386419 406.65358603 7.85386419 406.65604591 10.15043831 C406.67560402 11.47224437 406.67560402 11.47224437 406.69555724 12.82075357 C406.68440363 13.77940679 406.67325002 14.73806001 406.66175842 15.72576332 C406.66955838 16.75147926 406.67735833 17.7771952 406.68539464 18.83399343 C406.70536077 22.27586032 406.68953111 25.71662721 406.67381287 29.15850258 C406.68058688 31.62400903 406.68948879 34.08951043 406.70036316 36.55500221 C406.72081714 42.5593114 406.71779401 48.56318783 406.70329995 54.56748021 C406.69200818 59.44720723 406.69047652 64.32684668 406.69591904 69.20658302 C406.6966852 69.90107763 406.69745137 70.59557224 406.69824075 71.31111214 C406.69983938 72.72196284 406.70146044 74.13281351 406.70310371 75.54366416 C406.71736162 88.77339379 406.70096791 102.00295019 406.67410187 115.23265141 C406.65176298 126.58448673 406.6556431 137.93606641 406.67869568 149.28789711 C406.70545304 162.47025528 406.71598832 175.65246163 406.70063436 188.83484316 C406.69904161 190.24050488 406.69746976 191.64616662 406.69591904 193.05182838 C406.69514766 193.74344156 406.69437628 194.43505474 406.69358153 195.14762589 C406.68926431 200.0215227 406.6965515 204.8953232 406.7083168 209.76920509 C406.72380389 216.32907051 406.71277856 222.8885274 406.68384552 229.44837189 C406.67722323 231.85865347 406.67915172 234.26897563 406.69015884 236.67924118 C406.70377982 239.96426327 406.68673828 243.24772595 406.66175842 246.53264809 C406.67291203 247.4913013 406.68406564 248.44995452 406.69555724 249.43765783 C406.62782162 254.01547108 406.51783306 255.99275484 403.64340782 259.71873665 C400.806612 261.79000383 399.49695993 262.30842632 396.02684021 262.2542057 C395.20184021 262.26709633 394.37684021 262.27998695 393.52684021 262.2932682 C389.77914406 261.29778641 388.40547534 259.68179055 386.02684021 256.6292057 C385.30252619 253.44142972 385.37305835 250.32589111 385.42556763 247.06846046 C385.42128754 246.10280159 385.41700745 245.13714272 385.41259766 244.14222145 C385.40431591 240.89351836 385.43194483 237.64610171 385.45921326 234.39751625 C385.46074475 232.03400304 385.46007779 229.67048754 385.45738697 227.30697536 C385.45625707 220.97130245 385.48525859 214.63610066 385.52043915 208.30053902 C385.54889118 202.35787388 385.55025347 196.41532396 385.55381775 190.47258949 C385.58006569 173.08723237 385.64987134 155.70196311 385.71434021 138.3167057 C385.81746521 99.4798307 385.92059021 60.6429557 386.02684021 20.6292057 C261.28684021 20.6292057 136.54684021 20.6292057 8.02684021 20.6292057 C8.0616449 54.0313932 8.09644958 87.4335807 8.13230896 121.8479557 C8.14763013 142.95733117 8.16221366 164.06670323 8.17332458 185.1760807 C8.17882454 195.55586781 8.18444729 205.93565483 8.19041819 216.31544167 C8.19122771 217.7233596 8.19203283 219.13127754 8.19283348 220.53919548 C8.20563459 242.98526697 8.22814636 265.4313158 8.25573187 287.8773736 C8.28483329 311.59998449 8.30282812 335.32257785 8.30910569 359.04520655 C8.31322585 373.25755222 8.32624779 387.46983287 8.35058961 401.68215853 C8.36642468 411.42277221 8.37124562 421.16335219 8.36734434 430.90397781 C8.36541933 436.52715343 8.36840893 442.15021526 8.38445663 447.77337074 C8.39903876 452.92049286 8.39980345 458.0674245 8.38953689 463.21455532 C8.38826771 465.07740787 8.39208747 466.94027223 8.40148976 468.80310148 C8.41352723 471.33508811 8.40704113 473.866387 8.3959837 476.39836311 C8.40780526 477.48346338 8.40780526 477.48346338 8.41986564 478.59048486 C8.367387 483.907594 7.07140853 487.80399538 5.02684021 492.6292057 C51.24512931 492.57032895 97.46337005 492.49578454 143.68159863 492.40021942 C149.13774338 492.38895122 154.59388839 492.37781278 160.05003357 492.36675453 C161.67936804 492.36344901 161.67936804 492.36344901 163.34161837 492.3600767 C180.93094932 492.32470166 198.52028022 492.29983869 216.10963356 492.27885868 C234.15713355 492.2570983 252.20458736 492.22404558 270.25204808 492.18050414 C281.38881872 492.15399158 292.52553184 492.13629328 303.66233248 492.12985966 C311.298636 492.12460459 318.9348671 492.10838355 326.57113182 492.08354004 C330.97723685 492.06952921 335.38321227 492.0603527 339.78934097 492.06419754 C343.82569538 492.06761288 347.86177317 492.05721353 351.89807094 492.03597019 C353.35581624 492.03071079 354.81359033 492.03045847 356.2713353 492.03581008 C364.10955922 492.06164725 370.77625039 491.71613845 378.02684021 488.6292057 C379.01684021 488.2992057 380.00684021 487.9692057 381.02684021 487.6292057 C386.03763303 480.26039274 385.30448826 470.50122456 385.26634216 462.04058266 C385.26745672 460.67807346 385.26951713 459.31556475 385.27244568 457.95305824 C385.27714637 455.0333309 385.27607059 452.11368414 385.27066994 449.19395828 C385.26302988 444.57540703 385.27374804 439.95700944 385.28787231 435.33848 C385.32553088 422.2103656 385.34378092 409.08232294 385.33226013 395.95415688 C385.32604491 388.69262288 385.33761205 381.43133876 385.36870545 374.16986626 C385.38735338 369.57978566 385.38404969 364.99041332 385.36453784 360.40034449 C385.35765572 357.54614325 385.37161218 354.6923263 385.39148712 351.83819771 C385.39893707 349.88664391 385.38158847 347.93504471 385.36349487 345.98356056 C385.46500853 336.44498728 385.46500853 336.44498728 388.38638306 333.36667824 C391.5113978 331.31035732 393.27625268 330.6292057 397.02684021 330.6292057 C401.37670312 332.07916001 403.45940471 332.77805246 406.02684021 336.6292057 C406.28690243 339.27620029 406.28690243 339.27620029 406.30099487 342.52787209 C406.31097 343.75994896 406.32094513 344.99202583 406.33122253 346.26143837 C406.33211838 347.62938868 406.33278193 348.99733916 406.33323669 350.36528969 C406.34085763 351.8043759 406.34928501 353.24345803 406.35845947 354.68253517 C406.38043148 358.5962694 406.3892082 362.50992546 406.39428592 366.4237144 C406.39792953 368.87232307 406.40416994 371.3209113 406.41128731 373.76951218 C406.43580143 382.322606 406.44883572 390.87563911 406.45237732 399.42876625 C406.45600322 407.38184821 406.48582529 415.33454202 406.5277819 423.28750557 C406.5625884 430.12677616 406.57792763 436.96591894 406.57862335 443.80527741 C406.57941334 447.88472848 406.58802104 451.9637852 406.61662102 456.04314423 C406.64297644 459.88877824 406.64491098 463.73369621 406.62896538 467.57938004 C406.62716402 468.98212063 406.63372151 470.38490401 406.64978409 471.78755379 C406.77728886 483.6568535 404.45714024 494.06852008 396.05027771 502.8792057 C388.60778166 509.31595905 380.69448001 512.8739251 370.82524681 512.88926792 C370.11955545 512.89307359 369.41386409 512.89687926 368.68678814 512.90080026 C366.32214863 512.91110652 363.95774959 512.90721168 361.59309387 512.90336037 C359.88054852 512.90781331 358.16800523 512.91312753 356.45546496 512.91922909 C351.74911784 512.933413 347.04283675 512.93507231 342.33647132 512.93463218 C337.26062131 512.93628006 332.18479854 512.94934607 327.10896301 512.96082497 C316.00969339 512.98367693 304.91044289 512.99159587 293.81115294 512.99665141 C286.87980712 512.99990835 279.94846685 513.00643084 273.01712418 513.0136528 C253.82368587 513.03321938 234.63025274 513.04962312 215.43680382 513.05252934 C214.20850701 513.0527169 212.9802102 513.05290447 211.71469227 513.05309773 C209.22466127 513.05346398 206.73463027 513.05382768 204.24459927 513.05418884 C203.00855421 513.05437165 201.77250915 513.05455446 200.49900818 513.05474281 C198.64267566 513.05501364 198.64267566 513.05501364 196.74884148 513.05528993 C176.69811642 513.05883122 156.64749879 513.08585053 136.59681098 513.1232407 C116.00773139 513.16132737 95.41870509 513.18068684 74.82958949 513.18098885 C63.27091036 513.18157335 51.71235936 513.19006096 40.15371323 513.21898651 C30.3108061 513.2435052 20.46807382 513.25077994 10.62514441 513.23573899 C5.60487753 513.22857203 0.58495591 513.22941848 -4.43527222 513.25214958 C-9.03601747 513.27278133 -13.63615296 513.27010005 -18.23689191 513.24927474 C-19.89640824 513.24578786 -21.55596894 513.25065572 -23.21542712 513.26497918 C-35.7227075 513.36592967 -46.79052209 511.65295168 -56.22315979 502.6526432 C-62.53635151 495.35301528 -66.21730765 487.4651417 -66.23322201 477.76725864 C-66.23702768 477.0983027 -66.24083335 476.42934676 -66.24475434 475.74011943 C-66.2550536 473.5005087 -66.25116712 471.26115221 -66.24731445 469.02152443 C-66.25176772 467.39886051 -66.25708206 465.77619876 -66.26318318 464.15354019 C-66.27736212 459.69591408 -66.27902649 455.23835769 -66.27858627 450.78071225 C-66.28023449 445.97289152 -66.2933008 441.16509952 -66.30477905 436.35729408 C-66.3276242 425.84731867 -66.33554857 415.33736346 -66.3406055 404.82736659 C-66.34386191 398.26727672 -66.35038389 391.70719272 -66.35760689 385.14710617 C-66.37716916 366.98906169 -66.39357656 348.83102266 -66.39648342 330.67296696 C-66.39667099 329.51116427 -66.39685856 328.34936158 -66.39705181 327.15235275 C-66.39741807 324.79706577 -66.39778177 322.4417788 -66.39814293 320.08649182 C-66.39832574 318.91730859 -66.39850855 317.74812536 -66.3986969 316.54351234 C-66.39887745 315.3729053 -66.399058 314.20229826 -66.39924402 312.99621827 C-66.40278876 294.01097178 -66.42983157 275.02583849 -66.46719479 256.04063129 C-66.5052355 236.55560728 -66.52464057 217.07063953 -66.52494293 197.58557755 C-66.52552832 186.64248244 -66.53407319 175.6995225 -66.5629406 164.7564621 C-66.5873974 155.44255618 -66.59477578 146.12883477 -66.57969307 136.81490546 C-66.57250176 132.06080872 -66.57347699 127.30707679 -66.59610367 122.55302048 C-66.61660654 118.2036693 -66.61417548 113.85496541 -66.59322882 109.50562192 C-66.58971726 107.92967487 -66.59471402 106.35368194 -66.60893326 104.77779513 C-66.62698844 102.63950907 -66.61438554 100.50352618 -66.59398556 98.36531162 C-66.59480001 97.17662194 -66.59561447 95.98793226 -66.59645361 94.76322168 C-65.78817427 90.6990704 -64.14993272 89.20043434 -60.97315979 86.6292057 C-58.51165771 86.02793312 -58.51165771 86.02793312 -55.90748596 86.06157875 C-54.92684677 86.06195641 -53.94620758 86.06233406 -52.93585205 86.06272316 C-51.88984329 86.08852959 -50.84383453 86.11433601 -49.76612854 86.14092445 C-48.68559708 86.14799919 -47.60506561 86.15507393 -46.49179077 86.16236305 C-43.04737034 86.19030724 -39.60458724 86.25304938 -36.16065979 86.3167057 C-33.82279267 86.34178838 -31.48490003 86.36460159 -29.14698792 86.38506508 C-23.42182178 86.44013394 -17.69760776 86.52376151 -11.97315979 86.6292057 C-11.98981438 85.12369904 -11.98981438 85.12369904 -12.00680542 83.58777809 C-12.1081845 74.12695561 -12.18312657 64.66624339 -12.23222065 55.20500088 C-12.25830919 50.3408824 -12.29369363 45.47720258 -12.35035706 40.61333656 C-12.40470342 35.91895871 -12.43458592 31.22500264 -12.44754601 26.53033447 C-12.4567812 24.73973068 -12.47481572 22.94914986 -12.50181007 21.15872574 C-12.53813649 18.64943722 -12.54310382 16.1418889 -12.54078674 13.63237953 C-12.55876312 12.89294609 -12.5767395 12.15351265 -12.59526062 11.39167213 C-12.55844304 7.7040884 -12.16218701 5.87117828 -9.87140274 2.93875945 C-6.29050745 0.08521326 -4.53720336 0.00298278 0 0 Z M-45.97315979 106.6292057 C-46.0409743 153.48441977 -46.09468615 200.33962207 -46.12635578 247.19487548 C-46.13010791 252.72612691 -46.13399088 258.25737825 -46.13795471 263.78862953 C-46.13874164 264.88980559 -46.13952857 265.99098165 -46.14033935 267.12552667 C-46.15339451 284.95737522 -46.17704898 302.78919476 -46.20461818 320.62102609 C-46.23266928 338.91709852 -46.24933543 357.21315575 -46.25542527 375.50924879 C-46.25954232 386.79959333 -46.27254741 398.08985588 -46.29690919 409.38017518 C-46.31276272 417.12157466 -46.31756101 424.86293173 -46.31366392 432.60434627 C-46.31174179 437.07123023 -46.31469573 441.5379709 -46.33077621 446.00482941 C-46.34539894 450.0966615 -46.34609679 454.18825421 -46.33585647 458.28009743 C-46.33459125 459.75804534 -46.33837671 461.23600832 -46.34780934 462.71392667 C-46.49173383 476.05885575 -46.49173383 476.05885575 -40.53565979 487.5667057 C-35.85365287 491.3351503 -32.45342899 492.08664617 -26.50831604 491.93779945 C-22.34318856 491.43079626 -20.3097715 490.23176284 -16.97315979 487.6292057 C-12.55864886 481.94956054 -11.84774055 476.23971429 -11.85011196 469.25115681 C-11.84812091 467.9558286 -11.84612986 466.66050039 -11.84407848 465.32591981 C-11.84693138 463.8903684 -11.84987697 462.45481718 -11.85290527 461.01926613 C-11.85246922 459.49289934 -11.85159367 457.96653262 -11.85031611 456.44016629 C-11.84807793 452.24427275 -11.85208322 448.04840468 -11.85709417 443.85251439 C-11.86140816 439.32836096 -11.85995157 434.804209 -11.85919189 430.28005409 C-11.85866726 422.44111922 -11.86180773 414.60219267 -11.86742973 406.76325989 C-11.87555294 395.42944524 -11.8781608 384.09563462 -11.87941772 372.76181737 C-11.88160695 354.37394258 -11.88826354 335.98607223 -11.89772034 317.59819984 C-11.90689779 299.73491882 -11.913977 281.871639 -11.91822815 264.00835609 C-11.91849087 262.90746834 -11.9187536 261.80658059 -11.91902428 260.67233261 C-11.92032931 255.14956349 -11.92159302 249.62679437 -11.92283618 244.10402524 C-11.93320477 198.27908217 -11.95109458 152.45414451 -11.97315979 106.6292057 C-23.19315979 106.6292057 -34.41315979 106.6292057 -45.97315979 106.6292057 Z " fill="#000000" transform="translate(85.97315979003906,-0.6292057037353516)"/>
<path d="M0 0 C0.69268264 -0.00297112 1.38536528 -0.00594224 2.0990383 -0.0090034 C4.41960937 -0.01767349 6.74012875 -0.01919721 9.06071472 -0.02069092 C10.72480377 -0.02532027 12.38889176 -0.03034509 14.05297852 -0.03573608 C18.57372824 -0.04885033 23.09446312 -0.05530308 27.61522889 -0.05974674 C30.44019091 -0.06267888 33.26514889 -0.06678395 36.09010887 -0.07125092 C44.93048738 -0.08492293 53.77085663 -0.09459118 62.61124498 -0.09845281 C72.81309466 -0.10293376 83.01481037 -0.12048462 93.21661931 -0.1494534 C101.10464496 -0.17107392 108.99263293 -0.18115728 116.88068789 -0.18249393 C121.59086838 -0.18354163 126.30092289 -0.18944229 131.01107216 -0.20731354 C135.44258264 -0.22380074 139.87387252 -0.22594659 144.30540276 -0.21717453 C145.9295422 -0.21640452 147.55369353 -0.22074216 149.17780304 -0.23063278 C151.39996537 -0.24336913 153.62134829 -0.237467 155.84350586 -0.22705078 C157.08549649 -0.22851734 158.32748713 -0.2299839 159.60711384 -0.2314949 C163.79137493 0.2125079 166.39228054 1.18757291 170.11222839 3.14044189 C172.60845405 6.88478037 172.39991353 9.80093375 172.38638306 14.13626099 C172.39161974 14.96017401 172.39685641 15.78408703 172.40225178 16.63296711 C172.41729615 19.40357373 172.4179579 22.17399639 172.41862488 24.94464111 C172.42624336 26.9270967 172.43467031 28.90954931 172.44384766 30.89199829 C172.46582968 36.28455203 172.47459648 41.67704906 172.4796741 47.06964254 C172.48331316 50.43681738 172.48955084 53.80397725 172.49667549 57.17114639 C172.5211824 68.91270859 172.53422467 80.65422652 172.5377655 92.39581299 C172.54140222 103.34935989 172.57130426 114.30262683 172.61317009 125.25608814 C172.64783116 134.6531864 172.66331322 144.0501917 172.66401154 153.44735348 C172.66480575 159.06298963 172.67361067 164.67834074 172.7020092 170.29391098 C172.72811824 175.57500065 172.73043507 180.85556749 172.71435356 186.13669205 C172.71253338 188.07612494 172.71928082 190.01558741 172.73517227 191.95495605 C172.75553279 194.60081303 172.74514102 197.24482345 172.72695923 199.89065552 C172.7401592 200.66001651 172.75335916 201.4293775 172.76695913 202.22205245 C172.70752161 206.00309438 172.21497663 207.99347848 170.03163242 211.11637115 C166.35587467 213.66483435 164.24191688 213.76890768 159.78703308 213.77536011 C158.69560816 213.78706004 158.69560816 213.78706004 157.58213425 213.79899633 C155.14893912 213.81890812 152.71730955 213.80315653 150.28410339 213.78741455 C148.53779692 213.79419109 146.79149758 213.80309443 145.04521179 213.81396484 C140.30547569 213.83676056 135.56628371 213.82792076 130.82653809 213.81206942 C125.86674023 213.79941184 120.90698901 213.81115014 115.94718933 213.81900024 C107.61800266 213.82809722 99.28903766 213.81610762 90.95988464 213.79229736 C81.32976391 213.76508601 71.70017245 213.77390014 62.07006454 213.80142939 C53.80239201 213.82411808 45.53487882 213.82732171 37.26718521 213.81423604 C32.32901076 213.80644022 27.39108511 213.80540358 22.45292664 213.82191849 C17.81028463 213.83636048 13.16832509 213.82634662 8.52575684 213.7974472 C6.8217787 213.79083492 5.11774315 213.79273655 3.41378784 213.80376053 C1.0875575 213.81742305 -1.23648545 213.80029549 -3.56257629 213.77536011 C-5.51487152 213.77253242 -5.51487152 213.77253242 -7.50660706 213.7696476 C-11.89977045 212.9521176 -13.33341433 211.79075769 -15.88777161 208.14044189 C-16.38039141 205.1997965 -16.56532245 202.83964087 -16.52268982 199.90411377 C-16.53048977 199.0784919 -16.53828973 198.25287003 -16.54632604 197.40222931 C-16.56625994 194.63742874 -16.55047644 191.87400252 -16.53474426 189.10919189 C-16.54151977 187.12643632 -16.55042252 185.14368705 -16.56129456 183.16094971 C-16.58410228 177.77662753 -16.57524531 172.39278399 -16.55939913 167.00845337 C-16.54674786 161.37600405 -16.5584781 155.74359594 -16.56632996 150.11114502 C-16.57542875 140.65208573 -16.56343248 131.19322157 -16.53962708 121.73419189 C-16.51241548 110.795335 -16.52122947 99.85694405 -16.5487591 88.91809845 C-16.57144252 79.52942158 -16.57465397 70.14088505 -16.56156576 60.75218964 C-16.55376707 55.14332948 -16.55274126 49.5346884 -16.5692482 43.92584229 C-16.58368241 38.65287444 -16.57369006 33.38050782 -16.54477692 28.10760498 C-16.53816054 26.17141722 -16.54007316 24.23517895 -16.55109024 22.29901123 C-16.56473565 19.65757912 -16.54764323 17.01807869 -16.52268982 14.37677002 C-16.53384343 13.60877327 -16.54499704 12.84077652 -16.55648863 12.04950714 C-16.48466085 8.13540817 -16.024148 6.31628288 -13.59808922 3.18817139 C-9.06665555 -0.23546809 -5.6120089 0.01345344 0 0 Z M4.11222839 21.14044189 C4.11222839 45.89044189 4.11222839 70.64044189 4.11222839 96.14044189 C9.84354929 91.25228011 9.84354929 91.25228011 15.22550964 86.08966064 C15.91580261 85.3916333 16.60609558 84.69360596 17.31730652 83.97442627 C18.01275574 83.26608643 18.70820496 82.55774658 19.42472839 81.82794189 C20.83516864 80.39206539 22.2478199 78.95835631 23.66300964 77.52716064 C24.27829529 76.90027344 24.89358093 76.27338623 25.5275116 75.62750244 C28.63044519 72.71578337 31.59116021 72.60137382 35.70597839 72.69903564 C40.38477982 73.55732227 42.91143445 76.81771295 46.11222839 80.14044189 C47.38842548 81.41113516 48.66732491 82.67911725 49.94816589 83.94512939 C53.6923916 87.65449842 57.40759225 91.39159269 61.11222839 95.14044189 C66.95994374 90.29559917 72.29261302 85.05928225 77.62394714 79.65606689 C79.45128805 77.816091 81.27876605 75.97625124 83.10636902 74.13653564 C85.96603955 71.25309296 88.8231479 68.36713054 91.67790222 65.4788208 C94.44631308 62.6784888 97.22267494 59.88610555 99.99894714 57.09356689 C100.85316757 56.22588684 101.707388 55.35820679 102.5874939 54.4642334 C103.38544876 53.66289978 104.18340363 52.86156616 105.00553894 52.03594971 C105.70390366 51.33012756 106.40226837 50.62430542 107.12179565 49.89709473 C109.71506132 47.60841278 111.74295878 46.27239615 115.21891785 45.93742371 C121.80745952 46.46421562 124.88478646 48.83147434 129.29972839 53.58184814 C129.9283075 54.2241185 130.5568866 54.86638885 131.20451355 55.52812195 C133.19355634 57.56825763 135.15303945 59.63415976 137.11222839 61.70294189 C139.10590241 63.76882961 141.10516354 65.8291713 143.1056366 67.88847351 C144.34517262 69.16871021 145.57953598 70.45397857 146.80827332 71.74458313 C148.22468481 73.22750854 149.66587153 74.68670839 151.11222839 76.14044189 C151.44222839 76.14044189 151.77222839 76.14044189 152.11222839 76.14044189 C152.11222839 57.99044189 152.11222839 39.84044189 152.11222839 21.14044189 C103.27222839 21.14044189 54.43222839 21.14044189 4.11222839 21.14044189 Z M113.42909241 72.58306885 C112.42315536 73.59566772 112.42315536 73.59566772 111.39689636 74.62872314 C110.63625885 75.38951172 109.87562134 76.15030029 109.0919342 76.93414307 C107.86061264 78.18094849 107.86061264 78.18094849 106.60441589 79.45294189 C105.76379608 80.2963916 104.92317627 81.13984131 104.05708313 82.0088501 C101.36242241 84.71474261 98.67478263 87.42749269 95.98722839 90.14044189 C94.16607067 91.97162553 92.34446195 93.80236077 90.52238464 95.63262939 C86.04707853 100.13003566 81.57752384 104.63309748 77.11222839 109.14044189 C78.42509799 112.040176 79.8312625 114.10903453 82.07940674 116.3548584 C82.68653 116.96617615 83.29365326 117.5774939 83.91917419 118.20733643 C84.58366577 118.8662085 85.24815735 119.52508057 85.93278503 120.20391846 C86.63372787 120.90675964 87.33467072 121.60960083 88.05685425 122.33374023 C90.37384048 124.6544299 92.69794595 126.96784362 95.02238464 129.28106689 C96.63175276 130.88924314 98.24075166 132.49778896 99.84939575 134.10668945 C103.21981011 137.47553983 106.59355845 140.84100305 109.96989441 144.20391846 C114.30871244 148.52571272 118.64088424 152.85409495 122.97081852 157.18478775 C126.29122511 160.50492318 129.61422569 163.82245175 132.9381237 167.13909149 C134.53720358 168.73497853 136.1356691 170.33148139 137.73352242 171.9285965 C139.96019459 174.15311353 142.19012016 176.37431385 144.42106628 178.59454346 C145.42084 179.59499695 145.42084 179.59499695 146.44081116 180.61566162 C148.899122 183.67219363 148.899122 183.67219363 152.11222839 185.14044189 C153.17111722 172.71525454 153.89330773 160.29159455 154.29972839 147.82794189 C154.32939445 146.91959972 154.35906052 146.01125755 154.38962555 145.07538986 C155.4822214 115.67977981 155.4822214 115.67977981 142.08023071 90.49079895 C134.67253665 82.97549806 126.28293865 76.36364628 117.11222839 71.14044189 C114.99585491 70.92351673 114.99585491 70.92351673 113.42909241 72.58306885 Z M14.43571472 111.12750244 C2.93493916 122.77107884 2.14852417 135.43817462 2.01164246 150.94683838 C2.40732746 164.69018559 3.31453184 178.4145598 4.11222839 192.14044189 C45.03222839 192.14044189 85.95222839 192.14044189 128.11222839 192.14044189 C123.20908404 186.39667428 123.20908404 186.39667428 118.05661011 180.95783997 C117.30936172 180.20777176 116.56211334 179.45770355 115.79222107 178.68490601 C114.99249878 177.88720795 114.19277649 177.08950989 113.36882019 176.26763916 C112.51123611 175.40830276 111.65365204 174.54896637 110.77008057 173.66358948 C108.43760054 171.32748382 106.10292083 168.99362266 103.7670362 166.6609242 C101.31832518 164.21475848 98.87207012 161.76613861 96.42541504 159.31791687 C92.32436073 155.21504925 88.22121526 151.11428183 84.11686707 147.01470947 C79.3672032 142.27050842 74.62118183 137.52268627 69.87699383 132.77300984 C65.7988976 128.69038449 61.71886715 124.60969982 57.63719493 120.5306496 C55.20102757 118.09604333 52.76554601 115.66076135 50.33180809 113.22372627 C47.62694394 110.51545267 44.91802872 107.81125445 42.20866394 105.10748291 C40.99389877 103.8896814 40.99389877 103.8896814 39.7545929 102.64727783 C38.654869 101.55178368 38.654869 101.55178368 37.53292847 100.43415833 C36.89270091 99.79430779 36.25247335 99.15445726 35.59284496 98.49521732 C31.08416789 94.36974349 18.02753222 107.86523609 14.43571472 111.12750244 Z " fill="#000000" transform="translate(134.8877716064453,188.85955810546875)"/>
<path d="M0 0 C1.29931395 -0.00779995 2.59862789 -0.01559991 3.93731499 -0.02363622 C7.54228519 -0.04452271 11.1465942 -0.03418682 14.75156689 -0.01870513 C18.63986393 -0.00740267 22.52804644 -0.02484879 26.4163208 -0.03860474 C34.03281131 -0.0608536 41.64905565 -0.05602869 49.26555586 -0.04154153 C55.4548695 -0.03025574 61.64411408 -0.02871552 67.83343506 -0.03416061 C68.71387887 -0.03492678 69.59432268 -0.03569294 70.5014466 -0.03648233 C72.2899763 -0.03808093 74.07850597 -0.039702 75.86703563 -0.04134528 C92.64340429 -0.05560761 109.41963642 -0.03920249 126.19598269 -0.01234345 C140.59507899 0.00999578 154.99397375 0.00611579 169.39306641 -0.01693726 C186.10884228 -0.04368674 202.82449845 -0.05423427 219.54029274 -0.03887594 C221.32229231 -0.03728317 223.1042919 -0.03571132 224.8862915 -0.03416061 C225.76310007 -0.03338924 226.63990864 -0.03261786 227.54328716 -0.03182311 C233.72613258 -0.02750354 239.90890216 -0.03479816 246.09173584 -0.04655838 C253.62522603 -0.06057248 261.1584557 -0.05680655 268.69191599 -0.03015466 C272.53667193 -0.01700158 276.3809933 -0.01188898 280.22574615 -0.02840042 C284.39078567 -0.046017 288.5547252 -0.02500305 292.71972656 0 C293.93907331 -0.01115361 295.15842007 -0.02230722 296.41471672 -0.03379881 C305.50627725 0.07255626 305.50627725 0.07255626 308.60836792 3.0183506 C310.49911247 5.84294327 311.03750275 7.26599225 310.98486328 10.63491821 C310.99775391 11.45991821 311.01064453 12.28491821 311.02392578 13.13491821 C310.29375486 15.88379699 309.29012875 17.60407496 307.22262192 19.56741214 C302.92413184 22.03078242 297.52565976 21.31379726 292.71972656 21.26983643 C291.42041262 21.27763638 290.12109867 21.28543633 288.78241158 21.29347265 C285.17744137 21.31435914 281.57313236 21.30402325 277.96815968 21.28854156 C274.07986263 21.2772391 270.19168013 21.29468522 266.30340576 21.30844116 C258.68691525 21.33069003 251.07067091 21.32586512 243.4541707 21.31137796 C237.26485706 21.30009217 231.07561248 21.29855195 224.8862915 21.30399704 C224.00584769 21.3047632 223.12540388 21.30552937 222.21827996 21.30631875 C220.42975026 21.30791736 218.64122059 21.30953842 216.85269094 21.31118171 C200.07632227 21.32544404 183.30009014 21.30903892 166.52374387 21.28217988 C152.12464757 21.25984065 137.72575281 21.26372064 123.32666016 21.28677368 C106.61088428 21.31352317 89.89522811 21.32407069 73.17943382 21.30871236 C71.39743425 21.30711959 69.61543467 21.30554774 67.83343506 21.30399704 C66.95662649 21.30322566 66.07981793 21.30245428 65.1764394 21.30165953 C58.99359398 21.29733997 52.8108244 21.30463459 46.62799072 21.31639481 C39.09450053 21.33040891 31.56127087 21.32664298 24.02781057 21.29999109 C20.18305463 21.28683801 16.33873326 21.28172541 12.49398041 21.29823685 C8.32894089 21.31585343 4.16500136 21.29483948 0 21.26983643 C-1.82902013 21.28656684 -1.82902013 21.28656684 -3.69499016 21.30363524 C-12.78655069 21.19728017 -12.78655069 21.19728017 -15.88864136 18.25148582 C-17.77938591 15.42689315 -18.31777619 14.00384417 -18.26513672 10.63491821 C-18.27802734 9.80991821 -18.29091797 8.98491821 -18.30419922 8.13491821 C-17.57402829 5.38603944 -16.57040219 3.66576146 -14.50289536 1.70242429 C-10.20440528 -0.760946 -4.8059332 -0.04396083 0 0 Z " fill="#000000" transform="translate(136.64013671875,437.3650817871094)"/>
<path d="M0 0 C0.75925781 -0.04898438 1.51851563 -0.09796875 2.30078125 -0.1484375 C5.93185912 0.64790364 7.31574586 2.56447368 9.6875 5.375 C10.58128183 7.9636677 11.20546337 10.20729059 11.70703125 12.86328125 C11.85532883 13.56647995 12.0036264 14.26967865 12.15641785 14.9941864 C12.62204893 17.22205826 13.06133356 19.45417954 13.5 21.6875 C13.81272227 23.20673752 14.12715837 24.72562333 14.44335938 26.24414062 C15.21128988 29.95065317 15.95565302 33.66120174 16.6875 37.375 C17.10261841 35.96021362 17.10261841 35.96021362 17.52612305 34.5168457 C18.56299072 30.99887041 19.62099402 27.48754442 20.68530273 23.9777832 C21.14188826 22.46159602 21.59282245 20.94369449 22.0378418 19.42407227 C22.68078475 17.23231923 23.34420929 15.04766 24.01171875 12.86328125 C24.20465012 12.18912674 24.39758148 11.51497223 24.59635925 10.82038879 C26.03980247 6.19536904 27.98282367 3.47495798 31.6875 0.375 C33.96875 -0.25390625 33.96875 -0.25390625 36.1875 -0.1875 C36.9196875 -0.18878906 37.651875 -0.19007812 38.40625 -0.19140625 C41.88631115 0.67265003 43.22452859 1.69059425 45.6875 4.375 C47.39592045 8.1900413 48.60023976 12.12885359 49.8125 16.125 C50.48053746 18.24518068 51.14978451 20.36498066 51.8203125 22.484375 C52.13387695 23.48919922 52.44744141 24.49402344 52.77050781 25.52929688 C53.95277637 29.19823252 55.2905724 32.78290046 56.6875 36.375 C56.84831055 35.49239502 57.00912109 34.60979004 57.17480469 33.70043945 C57.78185533 30.40864022 58.40208485 27.11989014 59.03125 23.83227539 C59.30020028 22.4123666 59.56395023 20.99146207 59.82226562 19.56958008 C60.19579372 17.51876717 60.58825077 15.47233446 60.984375 13.42578125 C61.21479492 12.19512939 61.44521484 10.96447754 61.68261719 9.6965332 C62.77189068 6.09605559 64.11013718 4.08422355 66.6875 1.375 C70.16013273 -0.36131636 73.89943013 -0.22690402 77.6875 0.375 C80.44319447 2.55659145 82.12338747 4.24677494 83.6875 7.375 C83.56997363 15.8696405 81.70530048 24.28086576 80.0703125 32.58203125 C79.80965538 33.91952607 79.54923312 35.25706667 79.28903198 36.59465027 C78.74646368 39.37628108 78.19961658 42.15702883 77.64990234 44.93725586 C76.94863274 48.48692239 76.26055735 52.03900572 75.57589912 55.59190845 C75.04323047 58.34614932 74.50245582 61.09875255 73.95937729 63.85095787 C73.57818453 65.7919478 73.20467488 67.73444159 72.83132935 69.67695618 C72.59453461 70.86226425 72.35773987 72.04757233 72.11376953 73.26879883 C71.80851852 74.82453362 71.80851852 74.82453362 71.49710083 76.41169739 C70.36300791 80.56270663 68.90525234 84.18251223 65.8046875 87.21875 C63.31175999 88.58020119 61.64532576 88.83969999 58.8125 88.875 C57.99007812 88.9059375 57.16765625 88.936875 56.3203125 88.96875 C52.52015485 88.11174115 50.09215531 86.35174768 47.6875 83.375 C46.0992999 80.16879834 45.07697252 76.86257592 44.0625 73.4375 C43.78921875 72.57576172 43.5159375 71.71402344 43.234375 70.82617188 C40.90210158 63.38796343 38.80933482 55.87539159 36.6875 48.375 C36.43057373 49.18130859 36.17364746 49.98761719 35.90893555 50.81835938 C34.94326239 53.84556977 33.97576568 56.87218985 33.00708008 59.8984375 C32.59034695 61.20159369 32.17431499 62.50497434 31.7590332 63.80859375 C25.53203799 83.35131758 25.53203799 83.35131758 22.625 86.875 C18.27080802 89.09841718 14.47309735 89.21094569 9.6875 88.375 C5.67707278 86.33332796 4.26586806 85.14348685 2.87590027 80.89335632 C2.651548 79.93556778 2.42719574 78.97777924 2.19604492 77.9909668 C1.94422455 76.91946381 1.69240417 75.84796082 1.43295288 74.74398804 C0.22052556 69.26456306 -0.91964473 63.77416175 -2.01171875 58.26953125 C-2.2516304 57.06487717 -2.49154205 55.86022308 -2.73872375 54.61906433 C-3.2403452 52.09248737 -3.74025778 49.56557059 -4.23852539 47.03833008 C-5.00030559 43.1859546 -5.77444389 39.33618705 -6.54882812 35.48632812 C-7.03722124 33.01838002 -7.5248769 30.55028584 -8.01171875 28.08203125 C-8.24291916 26.94119583 -8.47411957 25.80036041 -8.71232605 24.62495422 C-11.80088201 8.75641122 -11.80088201 8.75641122 -8.4375 3.375 C-5.56738119 0.67371171 -3.85570781 0.16848471 0 0 Z " fill="#000000" transform="translate(283.3125,60.625)"/>
<path d="M0 0 C4.75442537 3.3601289 7.774898 7.10498037 10.9375 11.9375 C11.88000461 13.34258459 12.82272615 14.74752369 13.765625 16.15234375 C14.27416016 16.91659668 14.78269531 17.68084961 15.30664062 18.46826172 C18.56326699 23.33723742 21.88222888 28.16398179 25.1875 33 C26.49386579 34.91641027 27.79988634 36.83305596 29.10546875 38.75 C29.66387451 39.56984375 30.22228027 40.3896875 30.79760742 41.234375 C31.19439697 41.81703125 31.59118652 42.3996875 32 43 C32.0093457 41.94087402 32.01869141 40.88174805 32.02832031 39.79052734 C32.06833849 35.84284149 32.1341291 31.89592529 32.20751953 27.94873047 C32.23566087 26.24375329 32.25690935 24.53864731 32.27099609 22.83349609 C32.29252137 20.37530911 32.339217 17.91865952 32.390625 15.4609375 C32.39246796 14.32620499 32.39246796 14.32620499 32.39434814 13.16854858 C32.53464546 8.04368394 33.64069663 5.07848039 37 1 C40.45739557 -0.72869779 44.21975568 -0.48966895 48 0 C50.87029869 1.79393668 52.49131638 2.98263276 54 6 C54.11278285 8.3062661 54.15941007 10.61584955 54.17700195 12.92480469 C54.18357315 13.63722321 54.19014435 14.34964172 54.19691467 15.08364868 C54.21665896 17.44639183 54.22831384 19.80907133 54.23828125 22.171875 C54.24235678 22.97896156 54.2464323 23.78604813 54.25063133 24.61759186 C54.27149871 28.89089198 54.28579648 33.16415994 54.29516602 37.4375 C54.30622096 41.84710498 54.34060797 46.25620401 54.38033772 50.66563034 C54.40651335 54.05947798 54.41485876 57.45320538 54.41844749 60.84714508 C54.42331247 62.47221537 54.434924 64.09728033 54.45348549 65.72225189 C54.47789415 68.00111142 54.47690929 70.27866633 54.4699707 72.55761719 C54.47583694 73.85286316 54.48170319 75.14810913 54.48774719 76.48260498 C53.91408599 80.61956995 52.59835391 82.76974298 50 86 C46.51427427 88.22699144 43.11204569 88.44947222 39.02587891 87.78222656 C31.73281879 84.96625107 26.63661378 74.32565612 22.5 68.125 C21.24020245 66.25218755 19.97978882 64.37978938 18.71875 62.5078125 C18.10902344 61.60063477 17.49929687 60.69345703 16.87109375 59.75878906 C13.96322743 55.47135568 10.98673119 51.23273653 8 47 C7.98541748 47.93271729 7.97083496 48.86543457 7.95581055 49.82641602 C7.89446101 53.31380095 7.82025599 56.80043451 7.73754883 60.28735352 C7.70446091 61.79148187 7.67637955 63.29572958 7.65356445 64.80004883 C7.61971834 66.97268144 7.5673938 69.14423613 7.51171875 71.31640625 C7.48553467 72.62037354 7.45935059 73.92434082 7.43237305 75.26782227 C6.93645487 79.54851177 5.99990323 82.20103914 4 86 C0.84905867 88.10062755 -0.2224366 88.34313286 -3.875 88.4375 C-4.71804687 88.47746094 -5.56109375 88.51742187 -6.4296875 88.55859375 C-10.21254126 87.7364842 -11.58604582 85.98078754 -14 83 C-14.49124214 80.27016902 -14.67693618 78.16448109 -14.63110352 75.44335938 C-14.63825882 74.69963577 -14.64541412 73.95591217 -14.65278625 73.18965149 C-14.66964367 70.74038563 -14.65029028 68.29295798 -14.62890625 65.84375 C-14.62973523 64.13651376 -14.63219572 62.42927761 -14.63621521 60.7220459 C-14.63907116 57.14762284 -14.62439238 53.57382711 -14.59692383 49.99951172 C-14.56284092 45.42273722 -14.56886091 40.84708422 -14.5875864 36.27025604 C-14.59816598 32.74597869 -14.58920997 29.22196132 -14.57420158 25.69770813 C-14.56902631 24.01044996 -14.56949363 22.32316456 -14.57574654 20.63591003 C-14.58121054 18.27556182 -14.56078831 15.91680713 -14.53344727 13.55664062 C-14.53997314 12.86246536 -14.54649902 12.1682901 -14.55322266 11.45307922 C-14.46028889 6.72375466 -13.33094102 4.32863258 -10 1 C-6.81929763 -0.59035119 -3.41669549 -0.78937448 0 0 Z " fill="#000000" transform="translate(133,61)"/>
<path d="M0 0 C3.227214 2.22210526 6.21046763 4.42093526 8 8 C8.5811138 15.08958838 8.5811138 15.08958838 6.125 18.9375 C2.68167408 22.27955163 0.12864953 22.38198931 -4.51171875 22.3671875 C-7.35241156 21.94799578 -8.96577132 21.03669721 -11.375 19.5 C-16.37497286 16.38714212 -21.22552078 16.06226406 -27 17 C-27.66 17.66 -28.32 18.32 -29 19 C-29 19.99 -29 20.98 -29 22 C-28.37544922 22.24645264 -27.75089844 22.49290527 -27.10742188 22.74682617 C-24.23500429 23.88564088 -21.36754321 25.03646962 -18.5 26.1875 C-17.51773438 26.57486328 -16.53546875 26.96222656 -15.5234375 27.36132812 C-7.91914461 30.42839292 -0.51619579 33.6027916 4.875 40 C5.70644531 40.9590625 5.70644531 40.9590625 6.5546875 41.9375 C11.0610792 48.36824275 10.70259478 55.42568555 10 63 C9.08559267 66.03545525 7.81551646 68.41541059 6 71 C5.4225 71.886875 4.845 72.77375 4.25 73.6875 C-1.9712114 80.08152283 -9.49893794 83.20383514 -18.36938477 83.38037109 C-31.86307753 83.34910609 -42.59478511 80.22008452 -52.5 70.5625 C-54.44423998 67.24109004 -54.93249023 64.84805663 -55 61 C-53.68505131 56.72641675 -52.57585305 55.35437111 -48.75 53 C-44.15831744 51.77555132 -42.33764257 52.09752519 -38 54 C-36.70956557 54.97457496 -35.43962747 55.97667494 -34.1875 57 C-29.80497017 60.45676287 -25.58811244 61.87299744 -20 62 C-16.98197662 61.4641915 -15.64591344 60.74517695 -13 59 C-11.94832473 56.42267086 -11.94832473 56.42267086 -12 54 C-17.70653584 49.79026045 -23.85509033 47.58952481 -30.48046875 45.17578125 C-39.33131256 41.80467079 -45.94539383 37.75794932 -50 29 C-52.14297033 21.76023536 -51.37235849 15.21663369 -48.31640625 8.359375 C-44.81350615 2.08118015 -39.83615218 -1.96327625 -33.05859375 -4.3359375 C-21.55785064 -6.83290599 -10.38355839 -5.66242207 0 0 Z " fill="#000000" transform="translate(437,66)"/>
<path d="M0 0 C1.79537931 -0.01655326 3.5906929 -0.04383524 5.38574219 -0.08203125 C7.97682815 -0.13687157 10.56637041 -0.15868383 13.15795898 -0.17333984 C13.95708206 -0.19600922 14.75620514 -0.21867859 15.57954407 -0.24203491 C19.86954344 -0.22581823 21.40733687 -0.03819256 24.87158203 2.7578125 C27.81638504 6.54281654 28.3508238 8.54117859 27.88842773 13.35009766 C24.730533 18.92904502 24.730533 18.92904502 21.88842773 20.35009766 C20.14798604 20.43459394 18.40433052 20.45732789 16.66186523 20.44775391 C15.63061523 20.44453125 14.59936523 20.44130859 13.53686523 20.43798828 C12.45663086 20.42960937 11.37639648 20.42123047 10.26342773 20.41259766 C8.63147461 20.40583008 8.63147461 20.40583008 6.96655273 20.39892578 C4.27382111 20.38711555 1.58111764 20.36917971 -1.11157227 20.35009766 C-1.11157227 24.97009766 -1.11157227 29.59009766 -1.11157227 34.35009766 C0.34635742 34.29208984 1.80428711 34.23408203 3.30639648 34.17431641 C5.22954152 34.12741043 7.15272122 34.08191117 9.07592773 34.03759766 C10.03563477 33.99570313 10.9953418 33.95380859 11.98413086 33.91064453 C19.15574741 33.78656812 19.15574741 33.78656812 23.00170898 36.74462891 C25.77485354 40.57420949 26.34563761 42.5951149 25.88842773 47.35009766 C22.730533 52.92904502 22.730533 52.92904502 19.88842773 54.35009766 C18.2939531 54.43410295 16.69602229 54.45737232 15.09936523 54.44775391 C14.15834961 54.44453125 13.21733398 54.44130859 12.24780273 54.43798828 C11.26295898 54.42960937 10.27811523 54.42123047 9.26342773 54.41259766 C7.77456055 54.40583008 7.77456055 54.40583008 6.25561523 54.39892578 C3.79986051 54.38711927 1.34413667 54.36918348 -1.11157227 54.35009766 C-1.11157227 58.97009766 -1.11157227 63.59009766 -1.11157227 68.35009766 C1.29188477 68.26308594 1.29188477 68.26308594 3.74389648 68.17431641 C5.85454442 68.12741312 7.96522388 68.08191357 10.07592773 68.03759766 C11.13102539 67.99570313 12.18612305 67.95380859 13.27319336 67.91064453 C21.14100994 67.78654648 21.14100994 67.78654648 25.06420898 70.74462891 C27.75681332 74.59038285 28.34300881 76.62245443 27.88842773 81.35009766 C24.730533 86.92904502 24.730533 86.92904502 21.88842773 88.35009766 C16.52053662 88.63483773 11.15158511 88.66385635 5.77685547 88.70019531 C3.98147615 88.71674857 2.18616257 88.74403055 0.39111328 88.78222656 C-2.19997268 88.83706688 -4.78951495 88.85887914 -7.38110352 88.87353516 C-8.57978813 88.90753922 -8.57978813 88.90753922 -9.8026886 88.94223022 C-14.09268798 88.92601355 -15.6304814 88.73838787 -19.09472656 85.94238281 C-22.28455217 81.84244718 -22.24905235 79.61258358 -22.28857422 74.42529297 C-22.29514542 73.71287445 -22.30171661 73.00045593 -22.30848694 72.26644897 C-22.32823122 69.90370583 -22.3398861 67.54102633 -22.34985352 65.17822266 C-22.35392904 64.37113609 -22.35800457 63.56404953 -22.3622036 62.7325058 C-22.38307098 58.45920568 -22.39736875 54.18593772 -22.40673828 49.91259766 C-22.41779323 45.50299267 -22.45218024 41.09389365 -22.49190998 36.68446732 C-22.51808562 33.29061967 -22.52643102 29.89689228 -22.53001976 26.50295258 C-22.53488473 24.87788228 -22.54649627 23.25281733 -22.56505775 21.62784576 C-22.58946642 19.34898624 -22.58848156 17.07143132 -22.58154297 14.79248047 C-22.58740921 13.4972345 -22.59327545 12.20198853 -22.59931946 10.86749268 C-22.02658606 6.73721855 -20.71052221 4.57127489 -18.11157227 1.35009766 C-13.1628281 -1.12427442 -5.50533632 0.03722201 0 0 Z " fill="#000000" transform="translate(228.111572265625,60.64990234375)"/>
<path d="M0 0 C0.88666855 -0.0049649 1.7733371 -0.00992981 2.68687439 -0.01504517 C5.61832457 -0.02964241 8.54972063 -0.03646473 11.48120117 -0.04199219 C13.52137758 -0.04774563 15.56155397 -0.05350334 17.60173035 -0.05926514 C21.87967175 -0.06976818 26.1575944 -0.07561541 30.43554688 -0.07910156 C35.90982939 -0.08458488 41.38386302 -0.1086125 46.85806751 -0.13707352 C51.07289854 -0.15572214 55.28766988 -0.16090669 59.50253868 -0.16243744 C61.52030485 -0.16545945 63.53807009 -0.17347269 65.55579567 -0.18662262 C68.3824404 -0.20372953 71.20848037 -0.20179149 74.03515625 -0.1953125 C74.86397308 -0.20452728 75.69278992 -0.21374207 76.54672241 -0.22323608 C81.83163013 -0.18540245 85.54497373 0.61446144 90.21166992 3.16113281 C92.31229747 6.31207414 92.55480278 7.38356941 92.64916992 11.03613281 C92.70911133 12.30070312 92.70911133 12.30070312 92.77026367 13.59082031 C91.93126971 17.45136595 90.3207199 18.75054951 87.21166992 21.16113281 C83.98976839 21.89539259 80.83715013 21.84476622 77.54370117 21.80810547 C76.57564545 21.81686707 75.60758972 21.82562866 74.61019897 21.83465576 C71.41439828 21.85663905 68.21998437 21.84210017 65.02416992 21.82519531 C62.80126683 21.82856374 60.57836554 21.83341657 58.35546875 21.83969116 C53.69830783 21.84706107 49.04162662 21.83635264 44.38452148 21.81298828 C38.41542884 21.78450105 32.44746022 21.8009043 26.47840881 21.8308506 C21.88870782 21.84892 17.29927324 21.84316705 12.70956421 21.83021164 C10.50873685 21.82687667 8.30788528 21.83096787 6.10708618 21.84260941 C3.03061883 21.85531166 -0.04402945 21.83594847 -3.12036133 21.80810547 C-4.4842247 21.8232872 -4.4842247 21.8232872 -5.87564087 21.83877563 C-10.35509515 21.7636845 -12.20956155 21.61167378 -15.85107422 18.77694702 C-18.53103907 15.15827678 -18.50172459 12.90562448 -18.28051758 8.54003906 C-17.51915575 4.86012354 -15.79955871 3.28268026 -12.78833008 1.16113281 C-8.59505538 -0.17167741 -4.35771804 0.00583468 0 0 Z " fill="#000000" transform="translate(354.788330078125,380.8388671875)"/>
<path d="M0 0 C0.88666855 -0.0049649 1.7733371 -0.00992981 2.68687439 -0.01504517 C5.61832457 -0.02964241 8.54972063 -0.03646473 11.48120117 -0.04199219 C13.52137758 -0.04774563 15.56155397 -0.05350334 17.60173035 -0.05926514 C21.87967175 -0.06976818 26.1575944 -0.07561541 30.43554688 -0.07910156 C35.90982939 -0.08458488 41.38386302 -0.1086125 46.85806751 -0.13707352 C51.07289854 -0.15572214 55.28766988 -0.16090669 59.50253868 -0.16243744 C61.52030485 -0.16545945 63.53807009 -0.17347269 65.55579567 -0.18662262 C68.3824404 -0.20372953 71.20848037 -0.20179149 74.03515625 -0.1953125 C74.86397308 -0.20452728 75.69278992 -0.21374207 76.54672241 -0.22323608 C81.83163013 -0.18540245 85.54497373 0.61446144 90.21166992 3.16113281 C92.31229747 6.31207414 92.55480278 7.38356941 92.64916992 11.03613281 C92.70911133 12.30070312 92.70911133 12.30070312 92.77026367 13.59082031 C91.93126971 17.45136595 90.3207199 18.75054951 87.21166992 21.16113281 C83.98976839 21.89539259 80.83715013 21.84476622 77.54370117 21.80810547 C76.57564545 21.81686707 75.60758972 21.82562866 74.61019897 21.83465576 C71.41439828 21.85663905 68.21998437 21.84210017 65.02416992 21.82519531 C62.80126683 21.82856374 60.57836554 21.83341657 58.35546875 21.83969116 C53.69830783 21.84706107 49.04162662 21.83635264 44.38452148 21.81298828 C38.41542884 21.78450105 32.44746022 21.8009043 26.47840881 21.8308506 C21.88870782 21.84892 17.29927324 21.84316705 12.70956421 21.83021164 C10.50873685 21.82687667 8.30788528 21.83096787 6.10708618 21.84260941 C3.03061883 21.85531166 -0.04402945 21.83594847 -3.12036133 21.80810547 C-4.4842247 21.8232872 -4.4842247 21.8232872 -5.87564087 21.83877563 C-10.35509515 21.7636845 -12.20956155 21.61167378 -15.85107422 18.77694702 C-18.53103907 15.15827678 -18.50172459 12.90562448 -18.28051758 8.54003906 C-17.51915575 4.86012354 -15.79955871 3.28268026 -12.78833008 1.16113281 C-8.59505538 -0.17167741 -4.35771804 0.00583468 0 0 Z " fill="#000000" transform="translate(354.788330078125,332.8388671875)"/>
<path d="M0 0 C0.88666855 -0.0049649 1.7733371 -0.00992981 2.68687439 -0.01504517 C5.61832457 -0.02964241 8.54972063 -0.03646473 11.48120117 -0.04199219 C13.52137758 -0.04774563 15.56155397 -0.05350334 17.60173035 -0.05926514 C21.87967175 -0.06976818 26.1575944 -0.07561541 30.43554688 -0.07910156 C35.90982939 -0.08458488 41.38386302 -0.1086125 46.85806751 -0.13707352 C51.07289854 -0.15572214 55.28766988 -0.16090669 59.50253868 -0.16243744 C61.52030485 -0.16545945 63.53807009 -0.17347269 65.55579567 -0.18662262 C68.3824404 -0.20372953 71.20848037 -0.20179149 74.03515625 -0.1953125 C74.86397308 -0.20452728 75.69278992 -0.21374207 76.54672241 -0.22323608 C81.83163013 -0.18540245 85.54497373 0.61446144 90.21166992 3.16113281 C92.31229747 6.31207414 92.55480278 7.38356941 92.64916992 11.03613281 C92.70911133 12.30070312 92.70911133 12.30070312 92.77026367 13.59082031 C91.93126971 17.45136595 90.3207199 18.75054951 87.21166992 21.16113281 C83.98976839 21.89539259 80.83715013 21.84476622 77.54370117 21.80810547 C76.57564545 21.81686707 75.60758972 21.82562866 74.61019897 21.83465576 C71.41439828 21.85663905 68.21998437 21.84210017 65.02416992 21.82519531 C62.80126683 21.82856374 60.57836554 21.83341657 58.35546875 21.83969116 C53.69830783 21.84706107 49.04162662 21.83635264 44.38452148 21.81298828 C38.41542884 21.78450105 32.44746022 21.8009043 26.47840881 21.8308506 C21.88870782 21.84892 17.29927324 21.84316705 12.70956421 21.83021164 C10.50873685 21.82687667 8.30788528 21.83096787 6.10708618 21.84260941 C3.03061883 21.85531166 -0.04402945 21.83594847 -3.12036133 21.80810547 C-4.4842247 21.8232872 -4.4842247 21.8232872 -5.87564087 21.83877563 C-10.35509515 21.7636845 -12.20956155 21.61167378 -15.85107422 18.77694702 C-18.53103907 15.15827678 -18.50172459 12.90562448 -18.28051758 8.54003906 C-17.51915575 4.86012354 -15.79955871 3.28268026 -12.78833008 1.16113281 C-8.59505538 -0.17167741 -4.35771804 0.00583468 0 0 Z " fill="#000000" transform="translate(354.788330078125,284.8388671875)"/>
<path d="M0 0 C0.88666855 -0.0049649 1.7733371 -0.00992981 2.68687439 -0.01504517 C5.61832457 -0.02964241 8.54972063 -0.03646473 11.48120117 -0.04199219 C13.52137758 -0.04774563 15.56155397 -0.05350334 17.60173035 -0.05926514 C21.87967175 -0.06976818 26.1575944 -0.07561541 30.43554688 -0.07910156 C35.90982939 -0.08458488 41.38386302 -0.1086125 46.85806751 -0.13707352 C51.07289854 -0.15572214 55.28766988 -0.16090669 59.50253868 -0.16243744 C61.52030485 -0.16545945 63.53807009 -0.17347269 65.55579567 -0.18662262 C68.3824404 -0.20372953 71.20848037 -0.20179149 74.03515625 -0.1953125 C74.86397308 -0.20452728 75.69278992 -0.21374207 76.54672241 -0.22323608 C81.83163013 -0.18540245 85.54497373 0.61446144 90.21166992 3.16113281 C92.31229747 6.31207414 92.55480278 7.38356941 92.64916992 11.03613281 C92.70911133 12.30070313 92.70911133 12.30070313 92.77026367 13.59082031 C91.93126971 17.45136595 90.3207199 18.75054951 87.21166992 21.16113281 C83.98976839 21.89539259 80.83715013 21.84476622 77.54370117 21.80810547 C76.57564545 21.81686707 75.60758972 21.82562866 74.61019897 21.83465576 C71.41439828 21.85663905 68.21998437 21.84210017 65.02416992 21.82519531 C62.80126683 21.82856374 60.57836554 21.83341657 58.35546875 21.83969116 C53.69830783 21.84706107 49.04162662 21.83635264 44.38452148 21.81298828 C38.41542884 21.78450105 32.44746022 21.8009043 26.47840881 21.8308506 C21.88870782 21.84892 17.29927324 21.84316705 12.70956421 21.83021164 C10.50873685 21.82687667 8.30788528 21.83096787 6.10708618 21.84260941 C3.03061883 21.85531166 -0.04402945 21.83594847 -3.12036133 21.80810547 C-4.4842247 21.8232872 -4.4842247 21.8232872 -5.87564087 21.83877563 C-10.35509515 21.7636845 -12.20956155 21.61167378 -15.85107422 18.77694702 C-18.53103907 15.15827678 -18.50172459 12.90562448 -18.28051758 8.54003906 C-17.51915575 4.86012354 -15.79955871 3.28268026 -12.78833008 1.16113281 C-8.59505538 -0.17167741 -4.35771804 0.00583468 0 0 Z " fill="#000000" transform="translate(354.788330078125,236.8388671875)"/>
<path d="M0 0 C0.88666855 -0.0049649 1.7733371 -0.00992981 2.68687439 -0.01504517 C5.61832457 -0.02964241 8.54972063 -0.03646473 11.48120117 -0.04199219 C13.52137758 -0.04774563 15.56155397 -0.05350334 17.60173035 -0.05926514 C21.87967175 -0.06976818 26.1575944 -0.07561541 30.43554688 -0.07910156 C35.90982939 -0.08458488 41.38386302 -0.1086125 46.85806751 -0.13707352 C51.07289854 -0.15572214 55.28766988 -0.16090669 59.50253868 -0.16243744 C61.52030485 -0.16545945 63.53807009 -0.17347269 65.55579567 -0.18662262 C68.3824404 -0.20372953 71.20848037 -0.20179149 74.03515625 -0.1953125 C74.86397308 -0.20452728 75.69278992 -0.21374207 76.54672241 -0.22323608 C81.83163013 -0.18540245 85.54497373 0.61446144 90.21166992 3.16113281 C92.31229747 6.31207414 92.55480278 7.38356941 92.64916992 11.03613281 C92.70911133 12.30070313 92.70911133 12.30070313 92.77026367 13.59082031 C91.93126971 17.45136595 90.3207199 18.75054951 87.21166992 21.16113281 C83.98976839 21.89539259 80.83715013 21.84476622 77.54370117 21.80810547 C76.57564545 21.81686707 75.60758972 21.82562866 74.61019897 21.83465576 C71.41439828 21.85663905 68.21998437 21.84210017 65.02416992 21.82519531 C62.80126683 21.82856374 60.57836554 21.83341657 58.35546875 21.83969116 C53.69830783 21.84706107 49.04162662 21.83635264 44.38452148 21.81298828 C38.41542884 21.78450105 32.44746022 21.8009043 26.47840881 21.8308506 C21.88870782 21.84892 17.29927324 21.84316705 12.70956421 21.83021164 C10.50873685 21.82687667 8.30788528 21.83096787 6.10708618 21.84260941 C3.03061883 21.85531166 -0.04402945 21.83594847 -3.12036133 21.80810547 C-4.4842247 21.8232872 -4.4842247 21.8232872 -5.87564087 21.83877563 C-10.35509515 21.7636845 -12.20956155 21.61167378 -15.85107422 18.77694702 C-18.53103907 15.15827678 -18.50172459 12.90562448 -18.28051758 8.54003906 C-17.51915575 4.86012354 -15.79955871 3.28268026 -12.78833008 1.16113281 C-8.59505538 -0.17167741 -4.35771804 0.00583468 0 0 Z " fill="#000000" transform="translate(354.788330078125,188.8388671875)"/>
<path d="M0 0 C2.50670319 4.0107251 2.38447518 7.91619245 1.5625 12.5 C-0.3125 15.625 -0.3125 15.625 -3.4375 17.5 C-8.46372846 18.48876625 -12.14263784 18.2769173 -16.5625 15.625 C-19.19852749 11.23162086 -19.47197266 7.49995121 -18.4375 2.5 C-16.32123654 -0.38046971 -14.7301342 -1.8536829 -11.5625 -3.4375 C-7.23660249 -3.56473228 -3.64731257 -2.24450004 0 0 Z " fill="#000000" transform="translate(490.4375,288.5)"/>
</svg>
