<?xml version="1.0" encoding="UTF-8"?>
<svg version="1.1" xmlns="http://www.w3.org/2000/svg" width="512" height="512">
<path d="M0 0 C1.00804687 0.44214844 2.01609375 0.88429688 3.0546875 1.33984375 C13.19540681 6.09412904 21.579764 12.64515634 29.6875 20.3125 C33.55903503 23.91741569 36.88951748 26.20581044 41.8046875 28.08203125 C48.06472313 30.69966181 53.48317835 34.99487331 58 40 C58.48082031 40.50015625 58.96164062 41.0003125 59.45703125 41.515625 C72.6630993 55.82498481 72.46363634 74.93580522 72.36328125 93.27734375 C72.36276097 95.18347676 72.36328515 97.08961031 72.36479187 98.9957428 C72.36470292 102.95826398 72.35442677 106.92057842 72.33618164 110.88305664 C72.31338806 115.94200401 72.31297847 121.00065329 72.31969929 126.05963802 C72.32305003 129.98288082 72.31639015 133.90605653 72.30657005 137.82928658 C72.30274502 139.69466361 72.30155854 141.56004812 72.3031559 143.42542839 C72.30352964 146.03237896 72.29082427 148.63895565 72.2746582 151.24584961 C72.27837433 152.37987968 72.27837433 152.37987968 72.28216553 153.53681946 C72.17732443 164.21034388 69.35652006 172.97678861 62.1796875 181.046875 C58.51751996 184.51629688 55.76986057 186.12920788 50.875 187.3125 C48.08106322 188.28653301 46.48300462 189.09278251 45.06933594 191.74804688 C43.27281707 196.33373023 42.01917116 201.08738525 40.67675781 205.82080078 C35.88310931 221.25662565 22.36221568 235.0236152 8.96875 243.39453125 C6.68361053 245.25800808 6.55594243 246.19832379 6 249 C6.60418259 249.05238327 7.20836517 249.10476654 7.83085632 249.15873718 C13.99878674 249.72945479 20.05078809 250.60545493 26.14453125 251.70703125 C27.07617599 251.87369797 28.00782074 252.04036469 28.96769714 252.21208191 C30.92520816 252.56387953 32.88234352 252.91777337 34.83911133 253.27368164 C37.7929537 253.80895795 40.74886515 254.33151278 43.70507812 254.85351562 C66.44217122 258.93033085 84.74415442 264.67347243 99 284 C99.63091553 283.75765625 100.26183105 283.5153125 100.91186523 283.265625 C103.75308834 282.17536689 106.59527777 281.08765065 109.4375 280 C110.43072266 279.6184375 111.42394531 279.236875 112.44726562 278.84375 C113.39150391 278.4828125 114.33574219 278.121875 115.30859375 277.75 C116.18314209 277.41484375 117.05769043 277.0796875 117.95874023 276.734375 C120 276 120 276 121 276 C121 293.82 121 311.64 121 330 C123.97 330.33 126.94 330.66 130 331 C136.85549023 333.74001281 141.60872226 338.90365263 144.60961914 345.58227539 C146.32897537 350.35342254 146.45055043 354.839787 146.43359375 359.87109375 C146.4388356 360.79285904 146.44407745 361.71462433 146.44947815 362.6643219 C146.45586765 364.60310871 146.45460144 366.54193444 146.44604492 368.48071289 C146.43753322 371.42600369 146.46634214 374.36935324 146.49804688 377.31445312 C146.49965928 379.20833276 146.4990806 381.10221579 146.49609375 382.99609375 C146.50732773 383.86511826 146.51856171 384.73414276 146.53013611 385.62950134 C146.44417533 393.27530454 144.02542224 398.9022954 139.875 405.25 C134.15796841 410.718465 128.90165488 413 121 413 C121 423.23 121 433.46 121 444 C99.17782115 452.52888392 77.34736372 461.03581713 55.5 469.5 C40.82246622 475.18673105 26.14865819 480.88272572 11.48550415 486.60644531 C8.91741256 487.60845166 6.34877933 488.60905805 3.7800293 489.609375 C-3.30720228 492.37125052 -10.38787592 495.14519312 -17.44140625 497.9921875 C-19.05861572 498.6406665 -19.05861572 498.6406665 -20.70849609 499.30224609 C-22.60435186 500.06450379 -24.49701239 500.83479381 -26.38525391 501.61572266 C-27.5925415 502.09984619 -27.5925415 502.09984619 -28.82421875 502.59375 C-29.49541748 502.86896484 -30.16661621 503.14417969 -30.8581543 503.42773438 C-36.73269823 504.99731502 -41.38483111 503.38937277 -46.83203125 501.16796875 C-47.59960251 500.86478226 -48.36717377 500.56159576 -49.15800476 500.2492218 C-51.71323325 499.23777951 -54.26265617 498.2124326 -56.8125 497.1875 C-58.63234352 496.4649635 -60.45266747 495.74363604 -62.2734375 495.0234375 C-65.16237593 493.88052889 -68.05096717 492.73680742 -70.93814087 491.58944702 C-81.07039664 487.56378935 -91.2366204 483.62732508 -101.40591431 479.69638062 C-106.57128217 477.69910368 -111.73490992 475.69734139 -116.8984375 473.6953125 C-117.91100113 473.30274765 -118.92356476 472.9101828 -119.96681213 472.50572205 C-136.65597115 466.03316912 -153.32863504 459.51822136 -170 453 C-170.67085632 452.73771606 -171.34171265 452.47543213 -172.03289795 452.2052002 C-179.02275676 449.47223428 -186.01160681 446.73671342 -193 444 C-193 433.77 -193 423.54 -193 413 C-195.97 412.67 -198.94 412.34 -202 412 C-209.11773482 408.89899857 -214.10292752 403.59145883 -217.03979492 396.48339844 C-218.26424686 392.04137446 -218.32431433 387.94584825 -218.3359375 383.359375 C-218.3425943 382.43715149 -218.3492511 381.51492798 -218.35610962 380.5647583 C-218.36620562 378.61822494 -218.37092759 376.67165717 -218.37060547 374.72509766 C-218.37496577 371.77317053 -218.41128219 368.82275552 -218.44921875 365.87109375 C-218.45509042 363.97135922 -218.45905747 362.07161767 -218.4609375 360.171875 C-218.47530853 359.30173767 -218.48967957 358.43160034 -218.50448608 357.53509521 C-218.45093169 350.21751464 -216.69892021 343.42234212 -212.10546875 337.59765625 C-205.70755526 332.47671939 -201.49013943 330 -193 330 C-193 312.18 -193 294.36 -193 276 C-177 282 -177 282 -170 285 C-169.77054688 284.28585937 -169.54109375 283.57171875 -169.3046875 282.8359375 C-164.62496246 272.66384056 -152.69274407 264.9227418 -142.60058594 261.08837891 C-132.11490359 257.55984688 -121.22390366 255.80135833 -110.35888672 253.85302734 C-106.97835053 253.24611323 -103.60044489 252.62591188 -100.22265625 252.00390625 C-98.06524541 251.61120243 -95.90769797 251.21924812 -93.75 250.828125 C-92.74477295 250.6438092 -91.7395459 250.45949341 -90.70385742 250.26959229 C-89.76517822 250.10231628 -88.82649902 249.93504028 -87.859375 249.76269531 C-87.03920898 249.6148761 -86.21904297 249.46705688 -85.37402344 249.3147583 C-82.8891302 248.9853004 -80.50368223 248.94565985 -78 249 C-79.36066116 244.50827197 -81.11449987 242.85684028 -85 240.3125 C-100.74671206 229.2733559 -112.11662678 213.44202231 -116.1875 194.5 C-117.02727494 191.51097053 -117.38258334 190.36237165 -120.08984375 188.7734375 C-121.81807408 188.16096758 -123.55725142 187.57874518 -125.3046875 187.0234375 C-133.75788939 183.81367098 -138.16685201 176.76164885 -141.90625 168.9296875 C-143.86181942 163.69155513 -144.1275693 158.62616555 -144.14526367 153.07104492 C-144.14862228 152.40497223 -144.1519809 151.73889954 -144.15544128 151.05264282 C-144.16489562 148.86189881 -144.16689255 146.67123188 -144.16796875 144.48046875 C-144.17118848 142.93793203 -144.17455307 141.3953956 -144.17805481 139.8528595 C-144.18403474 136.61747533 -144.18589621 133.38211781 -144.18530273 130.14672852 C-144.18520194 126.05011696 -144.19877262 121.95368197 -144.21607494 117.85711193 C-144.22733922 114.66613523 -144.22921748 111.47519901 -144.22869301 108.28420448 C-144.22985469 106.77710686 -144.23417129 105.27000753 -144.24202538 103.76292992 C-144.27975617 95.76558653 -144.02753443 87.89367894 -143.1184082 79.94262695 C-143.04187861 79.26485042 -142.96534903 78.58707388 -142.88650036 77.88875866 C-139.76615821 53.13907419 -125.27591626 28.80744793 -105.8203125 13.4453125 C-75.52126328 -9.59418051 -35.15529738 -15.46304434 0 0 Z M-104.6875 36.8125 C-122.52732499 57.41624154 -126.70686451 79.74753533 -126.25 106.0625 C-126.22987722 108.10479993 -126.21163681 110.1471193 -126.1953125 112.18945312 C-126.15183716 117.12679449 -126.08313847 122.06317382 -126 127 C-122.535 126.01 -122.535 126.01 -119 125 C-119 121.7 -119 118.4 -119 115 C-117.88625 115.04640625 -116.7725 115.0928125 -115.625 115.140625 C-93.12461844 115.79378177 -75.28361346 109.0910894 -58.75537109 93.67626953 C-55.13311563 90.21724227 -51.57749587 86.69173515 -48.08569336 83.10107422 C-44.18579612 79.09289806 -44.18579612 79.09289806 -42 78 C-41.73316406 78.57363281 -41.46632813 79.14726563 -41.19140625 79.73828125 C-32.6951039 95.86732735 -16.34216921 107.43547551 0.73168945 112.86938477 C10.48227413 115.38485611 19.82822358 115.34563328 29.8125 115.1875 C31.48761805 115.17241177 33.16274939 115.15873075 34.83789062 115.14648438 C38.89226276 115.11383883 42.94597944 115.06229092 47 115 C47 118.3 47 121.6 47 125 C49.31 125.66 51.62 126.32 54 127 C54.09325368 119.62783147 54.16404243 112.25579301 54.20724869 104.88315105 C54.22800031 101.45858913 54.25608503 98.03443483 54.30175781 94.61010742 C54.35409597 90.66069657 54.37304794 86.71144271 54.390625 82.76171875 C54.41127014 81.54981369 54.43191528 80.33790863 54.45318604 79.08927917 C54.45627106 67.2405757 51.64025025 58.70774208 43.359375 50.15625 C38.80181239 45.99106033 34.12318529 43.43390773 28.4375 41.125 C24.38582457 39.39151578 22.02374519 37.23618765 19.04296875 34.05078125 C3.22264785 18.16996199 -18.59510084 8.84105567 -41 8.75 C-65.39420147 8.76332143 -88.03492694 19.03475308 -104.6875 36.8125 Z M-46 105 C-46.57105469 105.556875 -47.14210937 106.11375 -47.73046875 106.6875 C-63.32769158 121.36723913 -81.18455181 128.61549366 -102 132 C-102.05015208 137.54604842 -102.08606791 143.09195935 -102.10986328 148.63818359 C-102.11980304 150.51743881 -102.13335954 152.39667907 -102.15087891 154.27587891 C-102.37085655 178.51223901 -100.46488903 201.1885764 -82.875 219.75 C-68.99146865 232.92984552 -51.84024716 239.66015098 -32.7734375 239.30859375 C-12.49672542 237.65035332 3.78753755 228.09051134 16.8125 212.75 C30.23039347 194.46483145 30.16399865 174.02363513 30.0625 152.3125 C30.05747491 150.43554807 30.05291379 148.55859484 30.04882812 146.68164062 C30.03790258 142.12106113 30.02069357 137.56054521 30 133 C29.02728149 132.94054199 29.02728149 132.94054199 28.03491211 132.87988281 C1.3407176 131.1688074 -19.99271203 125.56729637 -40.6875 107.8203125 C-42.94880701 105.82911807 -42.94880701 105.82911807 -46 105 Z M-120 144 C-124.38529993 148.93346242 -126.36554433 151.95832856 -126.2890625 158.8671875 C-125.78428313 162.5916407 -124.14689639 164.93300515 -122 168 C-121.01 168.66 -120.02 169.32 -119 170 C-119 161.42 -119 152.84 -119 144 C-119.33 144 -119.66 144 -120 144 Z M47 144 C47 152.58 47 161.16 47 170 C52.93745919 164.41259811 52.93745919 164.41259811 54.3125 157.125 C54.20096634 153.13209492 53.20383155 150.38445559 51 147 C49.68 146.01 48.36 145.02 47 144 Z M-56 254 C-52.26984589 257.90677125 -48.34792857 261.23694147 -44 264.4375 C-43.39671875 264.90865234 -42.7934375 265.37980469 -42.171875 265.86523438 C-38.72359149 268.44965584 -38.72359149 268.44965584 -34.58203125 268.66796875 C-30.81624254 266.23530342 -27.2382789 263.61027383 -23.6875 260.875 C-22.94693359 260.31167969 -22.20636719 259.74835938 -21.44335938 259.16796875 C-19.62498391 257.78365711 -17.81075326 256.39425774 -16 255 C-19.30005694 253.89998102 -19.81671869 254.16535699 -23 255 C-24.94233352 255.09207019 -26.88751799 255.13067012 -28.83203125 255.1328125 C-29.96060547 255.13410156 -31.08917969 255.13539063 -32.25195312 255.13671875 C-34.01442383 255.13091797 -34.01442383 255.13091797 -35.8125 255.125 C-36.97587891 255.12886719 -38.13925781 255.13273437 -39.33789062 255.13671875 C-44.994489 255.13027982 -50.43124236 255.02432622 -56 254 Z M-3.38183594 266.35522461 C-4.67009277 267.36854858 -4.67009277 267.36854858 -5.984375 268.40234375 C-6.91894531 269.12744141 -7.85351562 269.85253906 -8.81640625 270.59960938 C-9.78449219 271.37111328 -10.75257813 272.14261719 -11.75 272.9375 C-12.73355469 273.70513672 -13.71710938 274.47277344 -14.73046875 275.26367188 C-17.1627587 277.16463635 -19.58517492 279.07693147 -22 281 C-20.71825282 283.81878012 -19.38992385 285.85241496 -17.1796875 288.015625 C-16.37724609 288.80839844 -16.37724609 288.80839844 -15.55859375 289.6171875 C-15.00300781 290.15601563 -14.44742188 290.69484375 -13.875 291.25 C-13.31167969 291.80429687 -12.74835938 292.35859375 -12.16796875 292.9296875 C-10.78313972 294.29104485 -9.39216796 295.64614859 -8 297 C-5.73202253 296.13908762 -5.73202253 296.13908762 -4.94677734 293.45556641 C-4.39691162 291.79533447 -4.39691162 291.79533447 -3.8359375 290.1015625 C-3.43632812 288.90015625 -3.03671875 287.69875 -2.625 286.4609375 C-2.42003906 285.83155273 -2.21507812 285.20216797 -2.00390625 284.55371094 C-1.37886242 282.63684517 -0.74120765 280.72453636 -0.1015625 278.8125 C2.15879543 272.53311558 2.15879543 272.53311558 3 266 C0.18353233 264.8112682 -0.67004247 264.81225971 -3.38183594 266.35522461 Z M-75 266 C-73.60152532 272.88642833 -71.64985223 279.41826697 -69.375 286.0625 C-69.05015625 287.02349609 -68.7253125 287.98449219 -68.390625 288.97460938 C-67.59788808 291.31784644 -66.80095424 293.65956176 -66 296 C-63.0707277 296.30701814 -63.0707277 296.30701814 -61.46606445 294.80664062 C-60.937146 294.26201172 -60.40822754 293.71738281 -59.86328125 293.15625 C-59.28642578 292.56972656 -58.70957031 291.98320312 -58.11523438 291.37890625 C-57.52033203 290.75886719 -56.92542969 290.13882812 -56.3125 289.5 C-55.70599609 288.87996094 -55.09949219 288.25992187 -54.47460938 287.62109375 C-52.97626257 286.08735293 -51.48723507 284.54451802 -50 283 C-51.45223216 279.4517176 -53.23487351 277.78370261 -56.31640625 275.546875 C-57.16267578 274.928125 -58.00894531 274.309375 -58.88085938 273.671875 C-59.76580078 273.03765625 -60.65074219 272.4034375 -61.5625 271.75 C-62.45130859 271.1003125 -63.34011719 270.450625 -64.25585938 269.78125 C-69.19470575 265.52635972 -69.19470575 265.52635972 -75 266 Z M21 269 C19.05664164 274.63608429 17.11794475 280.2737435 15.18334961 285.9128418 C14.52606646 287.82668146 13.86756286 289.74010246 13.20776367 291.65307617 C8.14361848 306.1857271 8.14361848 306.1857271 4 321 C8.79652833 320.2625778 13.11601464 318.55655652 17.62109375 316.82421875 C18.46612961 316.50258255 19.31116547 316.18094635 20.18180847 315.8495636 C22.93535663 314.79980803 25.68650609 313.74392932 28.4375 312.6875 C30.32923831 311.96412467 32.22100279 311.24081779 34.11279297 310.51757812 C49.80673258 304.50577458 65.4290267 298.32308998 81 292 C78.94961726 288.46159414 77.17204309 285.96760539 73.9375 283.4375 C72.89916016 282.60025391 72.89916016 282.60025391 71.83984375 281.74609375 C62.05486979 275.729748 51.05935976 274.24162591 39.9375 272.25 C38.20881287 271.93192027 36.48029538 271.61291714 34.75195312 271.29296875 C27.9103202 269.74038803 27.9103202 269.74038803 21 269 Z M-109.33422852 271.77099609 C-111.05288746 272.08723063 -112.77228368 272.3994873 -114.49243164 272.70751953 C-131.28511292 275.41473223 -131.28511292 275.41473223 -145.9375 283.5625 C-146.64777344 284.14128906 -147.35804688 284.72007812 -148.08984375 285.31640625 C-150.64549289 287.55713778 -150.64549289 287.55713778 -153 290 C-153 290.66 -153 291.32 -153 292 C-121.12599221 304.67568027 -121.12599221 304.67568027 -89.1875 317.1875 C-88.16027832 317.5901709 -87.13305664 317.9928418 -86.07470703 318.40771484 C-85.1567334 318.76172363 -84.23875977 319.11573242 -83.29296875 319.48046875 C-82.5249292 319.77848389 -81.75688965 320.07649902 -80.96557617 320.38354492 C-78.8662427 321.14962667 -78.8662427 321.14962667 -76 321 C-78.66096681 310.04544518 -82.51600254 299.45737241 -86.1875 288.8125 C-86.84862346 286.88747835 -87.50943344 284.962349 -88.16992188 283.03710938 C-89.77633407 278.35682269 -91.38698959 273.67801657 -93 269 C-98.30975929 269 -104.11059121 270.80400339 -109.33422852 271.77099609 Z M-38.37942505 295.13891602 C-38.9079306 295.67186279 -39.43643616 296.20480957 -39.98095703 296.75390625 C-40.58142853 297.35452881 -41.18190002 297.95515137 -41.80056763 298.57397461 C-42.44645844 299.23018799 -43.09234924 299.88640137 -43.7578125 300.5625 C-44.42086395 301.22838135 -45.08391541 301.8942627 -45.76705933 302.58032227 C-47.89109417 304.71558381 -50.00808393 306.85768286 -52.125 309 C-53.56074041 310.44576698 -54.99693254 311.89108552 -56.43359375 313.3359375 C-59.96099872 316.88543586 -63.48209897 320.44108308 -67 324 C-64.94044053 328.11911894 -58.48805144 329.25575151 -54.29125977 330.90551758 C-52.33144182 331.68001442 -50.38179043 332.4769177 -48.43164062 333.27539062 C-47.18024613 333.77224265 -45.9283085 334.26772928 -44.67578125 334.76171875 C-42.9728894 335.4417395 -42.9728894 335.4417395 -41.2355957 336.13549805 C-35.52147956 337.66222296 -31.08493808 335.81044608 -25.7265625 333.71484375 C-24.57285156 333.26689453 -23.41914063 332.81894531 -22.23046875 332.35742188 C-21.04066406 331.88884766 -19.85085938 331.42027344 -18.625 330.9375 C-17.41199219 330.46505859 -16.19898438 329.99261719 -14.94921875 329.50585938 C-11.96409821 328.34236751 -8.98115892 327.17359708 -6 326 C-6 322.05822705 -7.70197733 320.93578016 -10.37020874 318.23860168 C-10.99827423 317.61974594 -11.62633972 317.0008902 -12.2734375 316.36328125 C-12.91237946 315.72384079 -13.55132141 315.08440033 -14.20962524 314.42558289 C-15.5629186 313.07463172 -16.9199104 311.72737689 -18.28027344 310.38354492 C-20.3683061 308.31911823 -22.44269229 306.2416861 -24.515625 304.16210938 C-25.82993836 302.85337201 -27.14501706 301.5454027 -28.4609375 300.23828125 C-29.08495453 299.61335281 -29.70897156 298.98842438 -30.35189819 298.34455872 C-33.91274244 294.04082361 -33.91274244 294.04082361 -38.37942505 295.13891602 Z M-176 302 C-176.24873662 306.28630589 -176.4292977 310.56871843 -176.54931641 314.86010742 C-176.59936705 316.31658102 -176.66744172 317.77255796 -176.75439453 319.22729492 C-177.48617793 327.92557475 -177.48617793 327.92557475 -173.86352539 335.44165039 C-171.31603105 337.20806565 -168.75736344 338.59359875 -166 340 C-158.3132597 346.202313 -153.22977615 355.14471056 -152 365 C-151.09521531 377.55388753 -153.34940399 387.84888451 -161 398 C-165.66078097 402.91971324 -169.88374226 405.94187113 -176 409 C-176 416.26 -176 423.52 -176 431 C-170.56965424 433.71517288 -165.3685826 436.12634236 -159.71875 438.22265625 C-158.07982481 438.84014492 -156.44090926 439.45765917 -154.80200195 440.07519531 C-153.50971176 440.55937927 -153.50971176 440.55937927 -152.1913147 441.05334473 C-135.1599679 447.43954455 -118.21508186 454.0311388 -101.3125 460.75 C-97.29570384 462.34538187 -93.27874725 463.94035948 -89.26171875 465.53515625 C-87.81974121 466.10771149 -87.81974121 466.10771149 -86.34863281 466.6918335 C-78.12345342 469.95563448 -69.89004835 473.19776546 -61.64193726 476.40319824 C-60.31091584 476.92077629 -58.98035881 477.43955035 -57.65029907 477.95959473 C-55.86453969 478.6574387 -54.07686093 479.35036529 -52.2890625 480.04296875 C-51.30631348 480.42477295 -50.32356445 480.80657715 -49.31103516 481.19995117 C-47.09260788 482.109046 -47.09260788 482.109046 -45 482 C-45 439.1 -45 396.2 -45 352 C-58.86 346.72 -72.72 341.44 -87 336 C-101.42309592 330.34062755 -101.42309592 330.34062755 -108.46087646 327.52700806 C-113.37290726 325.5642519 -118.28995645 323.61414115 -123.20703125 321.6640625 C-124.1878064 321.27505264 -125.16858154 320.88604279 -126.17907715 320.48524475 C-135.69647469 316.71535563 -145.23313806 312.99606026 -154.78408813 309.31204224 C-156.49968789 308.65018475 -158.21484381 307.98717553 -159.92953491 307.32296753 C-162.27198327 306.41617878 -164.616121 305.51392556 -166.9609375 304.61328125 C-167.65116501 304.34554901 -168.34139252 304.07781677 -169.05253601 303.80197144 C-172.42965791 302.44881654 -172.42965791 302.44881654 -176 302 Z M97.92553711 303.49023438 C97.07540543 303.81960999 96.22527374 304.1489856 95.34938049 304.48834229 C94.41810837 304.85312683 93.48683624 305.21791138 92.52734375 305.59375 C91.55421738 305.97190857 90.581091 306.35006714 89.57847595 306.73968506 C86.36356579 307.98993407 83.15054497 309.24496622 79.9375 310.5 C77.70014652 311.37106102 75.46267792 312.2418264 73.22509766 313.11230469 C66.48160717 315.73695345 59.74050363 318.36769153 53 321 C52.03245789 321.37777588 51.06491577 321.75555176 50.0680542 322.14477539 C47.37736097 323.1953735 44.68672332 324.24611386 41.99609375 325.296875 C41.13090622 325.63468994 40.26571869 325.97250488 39.37431335 326.32055664 C35.42317441 327.86345122 31.47246338 329.40740563 27.52319336 330.95507812 C9.3800013 338.05256243 -8.81546859 345.00594946 -27 352 C-27 394.9 -27 437.8 -27 482 C-19.64664683 479.55833671 -19.64664683 479.55833671 -12.39648438 476.89379883 C-11.38683624 476.50463287 -10.37718811 476.11546692 -9.33694458 475.71450806 C-8.26669037 475.29954071 -7.19643616 474.88457336 -6.09375 474.45703125 C-4.95187225 474.01612152 -3.80999451 473.57521179 -2.6335144 473.12094116 C0.44219145 471.93272486 3.51716019 470.74262722 6.59174347 469.55150986 C9.15401249 468.55922081 11.71686786 467.56845097 14.27971077 466.5776453 C34.07403376 458.92461075 53.85348709 451.23351638 73.61517334 443.49658203 C78.26917003 441.67500827 82.92637045 439.86196678 87.5859375 438.0546875 C89.24375244 437.41043823 89.24375244 437.41043823 90.93505859 436.75317383 C92.89813458 435.99055462 94.86193675 435.22980045 96.82666016 434.47143555 C100.69835857 433.21115006 100.69835857 433.21115006 104 431 C104.95245654 423.86981639 105.3492019 416.08657069 104 409 C101.74953165 406.14068751 100.09351171 405.41751727 96.73828125 404.1171875 C89.04906995 400.98007704 85.03390238 392.82098042 81.91015625 385.578125 C77.98584361 374.46204629 79.44091895 362.68046401 84 352 C87.78654953 345.18651269 94.4566262 338.03325541 101.60986328 334.83203125 C104.34008348 333.16598911 104.34008348 333.16598911 104.56762695 329.8137207 C104.54144287 328.53070068 104.51525879 327.24768066 104.48828125 325.92578125 C104.48120651 325.2419487 104.47413177 324.55811615 104.46684265 323.8535614 C104.43888004 321.67208841 104.37615064 319.49319506 104.3125 317.3125 C104.28741897 315.8327194 104.26460544 314.35289851 104.24414062 312.87304688 C104.18905135 309.24786137 104.10277108 305.62418247 104 302 C101.62763853 302 100.13870803 302.62784964 97.92553711 303.49023438 Z M-199 350 C-200.64769027 353.29538054 -200.20603431 356.96175062 -200.23828125 360.5859375 C-200.246353 361.43926666 -200.25442474 362.29259583 -200.26274109 363.17178345 C-200.27658148 364.97908496 -200.28730384 366.7864126 -200.29516602 368.59375 C-200.31238952 371.35727413 -200.35627592 374.11960516 -200.40039062 376.8828125 C-200.41051666 378.63801203 -200.41903304 380.39322173 -200.42578125 382.1484375 C-200.44328934 382.97459564 -200.46079742 383.80075378 -200.47883606 384.65194702 C-200.46895116 389.42340651 -200.46895116 389.42340651 -198.12646484 393.50244141 C-194.92937133 395.75398809 -192.45922478 396.19043717 -188.60546875 395.6875 C-180.70126865 393.44010223 -174.81004641 389.50315369 -170.5 382.375 C-167.8317268 376.25226596 -167.93846827 369.02055143 -169.625 362.6328125 C-172.29919054 356.49650028 -177.33597816 351.69664065 -183.37890625 348.8984375 C-189.40990692 346.77218685 -193.50808394 346.14081574 -199 350 Z M102.73046875 355.06640625 C97.28338085 361.15288145 96.32508616 366.76639408 96.625 374.8828125 C97.51167388 382.25328913 101.02717252 386.89135888 106.72265625 391.515625 C111.08536411 394.35924247 115.84875578 396.24954604 121.12109375 395.83203125 C124.75029906 394.94925158 125.89789865 394.15315202 128 391 C128.20840728 388.07322082 128.30401523 385.2439477 128.30078125 382.31640625 C128.30506638 381.46449203 128.3093515 380.61257782 128.31376648 379.73484802 C128.31950805 377.93351124 128.32001131 376.13215126 128.31567383 374.33081055 C128.31251577 371.57625716 128.33596786 368.8227798 128.36132812 366.06835938 C128.36360134 364.31770969 128.36430451 362.56705711 128.36328125 360.81640625 C128.372491 359.99338516 128.38170074 359.17036407 128.39118958 358.32240295 C128.36326406 354.86657012 128.31662396 352.59452161 126.67260742 349.50756836 C119.34471552 342.90273221 108.46527333 349.56053599 102.73046875 355.06640625 Z " fill="#000000" transform="translate(292,8)"/>
</svg>
